<svg width="68" height="68" viewBox="0 0 68 68" fill="none" xmlns="http://www.w3.org/2000/svg">
<g clip-path="url(#clip0)">
<path d="M42.23 37.2951H38.187C38.2707 37.6169 38.3557 38.634 38.3675 38.7047C38.7098 40.661 37.4893 41.6576 36.2174 42.081C31.4266 43.6784 29.9861 37.2951 29.9861 37.2951H28.5156V38.4915V46.867H36.8911V49.26H58.4279H59.6243V46.867H66.8032H67.9996V24.1338H51.9441L42.23 37.2951ZM62.0174 37.2951H50.7871L55.6927 30.1162H62.0174V37.2951Z" fill="#F6B788"/>
<path d="M63.8124 51.653H31.5072C28.8641 51.653 26.123 53.1977 26.123 55.8407V60.6266C26.123 63.2696 28.8642 66.0108 31.5072 66.0108H63.8124C66.4554 66.0108 68.0002 63.2696 68.0002 60.6266V55.8407C68.0002 53.1977 66.4554 51.653 63.8124 51.653ZM63.2142 61.2249H30.909V56.4389H63.2142V61.2249Z" fill="#F6B788"/>
<path d="M10.2742 38.061C10.1331 38.4007 9.94528 38.713 9.69991 38.975C9.14712 39.5624 8.36698 39.9252 7.52228 39.9252C7.24951 39.9252 6.97787 39.8868 6.71348 39.8126C5.94298 39.5961 5.30397 39.0936 4.91397 38.3962C4.58377 37.8087 4.47729 37.1432 4.57776 36.4876C4.5969 36.3656 4.60892 36.2424 4.64358 36.1214L4.81712 35.6656L4.28347 35.9672C2.3248 37.0736 -0.00724023 39.5004 1.68953e-05 44.7792C0.0107775 53.4034 8.0787 54.7924 8.16003 54.8069L8.58957 54.8751L10.6128 50.8944L10.2742 38.061Z" fill="#F6B788"/>
<path d="M9.36133 56.421L12.5176 58.1296L13.6567 56.0249L12.209 51.1588L9.36133 56.421Z" fill="#F6B788"/>
<path d="M33.2434 39.6306C33.466 40.004 34.1994 40.9755 35.6759 40.2193C36.3867 39.8557 36.3867 39.1174 36.3867 38.713C36.3867 37.5284 28.5161 14.2627 28.5161 14.2627L23.3174 19.842L33.2434 39.6306Z" fill="#F6B788"/>
<path d="M26.6134 3.827L26.6159 3.39871L24.1283 1.9892L23.6354 2.26797L22.646 2.82915L21.7486 3.33765L21.0977 3.70613L16.8705 6.10036L6.01239 34.6893L5.77904 35.3019C5.66542 35.7136 5.72286 36.1969 5.95734 36.6156C6.19194 37.0345 6.57594 37.336 7.03652 37.465C7.97457 37.7294 8.99156 37.1494 9.24994 36.2243L9.2871 36.1466L9.33728 36.04L21.9363 18.2304L22.3323 17.6705L22.7283 17.1105L26.5714 11.6785L26.6134 3.827ZM22.0847 10.0644C21.1 10.0644 20.3007 9.26634 20.3007 8.28038C20.3007 7.29566 21.0987 6.49637 22.0847 6.49637C23.0706 6.49637 23.8687 7.29441 23.8687 8.28038C23.8687 9.26509 23.0695 10.0644 22.0847 10.0644Z" fill="#F6B788"/>
</g>
<defs>
<clipPath id="clip0">
<rect width="68" height="68" fill="white"/>
</clipPath>
</defs>
</svg>
