<?xml version="1.0" encoding="UTF-8"?>
<svg width="48px" height="47px" viewBox="0 0 48 47" version="1.1" xmlns="http://www.w3.org/2000/svg" xmlns:xlink="http://www.w3.org/1999/xlink">
    <defs></defs>
    <g id="login-v3" stroke="none" stroke-width="1" fill="none" fill-rule="evenodd">
        <g id="login/template-success" transform="translate(-150.000000, -282.000000)" fill-rule="nonzero">
            <g id="ill-success" transform="translate(150.000000, 282.000000)">
                <path d="M0.372881356,23.5661017 C0.372881356,10.7579661 10.939661,0.379661017 23.9728814,0.379661017 C37.0047458,0.379661017 47.5715254,10.7633898 47.5715254,23.5661017 C47.5715254,36.3742373 37.0047458,46.7525424 23.9728814,46.7525424 C10.939661,46.7525424 0.372881356,36.3674577 0.372881356,23.5661017 Z" id="Shape" fill="#58DBAC"></path>
                <path d="M34.1545763,12.7972881 L23.1525423,28.3362712 L15.3830508,22.0718644 C14.5411477,21.3960376 13.3139736,21.5145441 12.6169491,22.338983 C12.2863132,22.7334138 12.1289364,23.2446323 12.1805028,23.7567227 C12.2320692,24.2688133 12.4882103,24.7383913 12.8908475,25.0589831 L22.301017,32.6522034 C22.7280966,32.9948577 23.2770539,33.1472914 23.819661,33.0738983 C24.3620339,32.9979661 24.8501695,32.7050847 25.1620339,32.2616949 L37.3844068,15.0061017 C37.6812446,14.5857006 37.7964749,14.0635571 37.7041448,13.5572717 C37.6118146,13.0509863 37.3196879,12.6031316 36.8935593,12.3145763 C36.0009255,11.7051863 34.7851062,11.9194593 34.1545763,12.7972881 Z" id="Shape" fill="#FFFFFF"></path>
            </g>
        </g>
    </g>
</svg>
