<svg viewBox="0 0 110 110" xmlns="http://www.w3.org/2000/svg"><g fill="none" fill-rule="evenodd" transform="translate(17 8)"><rect fill-opacity=".05" fill="#191b24" y="37" width="73" height="57" rx="2"/><path d="m5 32.4h70c.552 0 1 .448 1 1v55.6c0 .552-.448 1-1 1h-70c-.552 0-1-.448-1-1v-55.6c0-.552.448-1 1-1" fill="#ebba16"/><path d="m50.8 57.6c0-5.965-4.835-10.8-10.8-10.8-5.965 0-10.8 4.835-10.8 10.8 0 4.741 3.074 8.726 7.326 10.177-.04.209-.126.403-.126.623v7.2c0 1.987 1.613 3.6 3.6 3.6 1.987 0 3.6-1.613 3.6-3.6v-7.2c0-.22-.086-.414-.126-.623 4.252-1.451 7.326-5.436 7.326-10.177" fill="#38454f"/><path d="m35 7.2c9.925 0 13.896-7.2 0-7.2-13.896 0-25.2 11.304-25.2 25.2v7.2h7.2v-7.2c0-9.925 8.07-18 18-18" fill-opacity=".05" fill="#191b24"/><path d="m22 25.2c0-9.925 8.07-18 18-18 9.925 0 18 8.07 18 18v7.2h7.2v-7.2c0-13.896-11.304-25.2-25.2-25.2-13.896 0-25.2 11.304-25.2 25.2v7.2h7.2v-7.2" fill="#424a60"/></g></svg>