<svg viewBox="0 0 110 110" xmlns="http://www.w3.org/2000/svg"><g fill="none" fill-rule="evenodd" transform="translate(18 17)"><path d="m52.757 46.607c-1.599-.741-2.3-2.259-2.3-3.914v-4.473c.348-.366 2.583-3.832 3.666-8.594 1.586-.454 2.775-1.811 2.775-3.425v-5.656c0-1.056-1.051-1.511-1.84-2.171v-6.514c0 0 .771-10.857-13.802-10.857-14.572 0-13.802 10.857-13.802 10.857v6.514c-.789.661-1.84 1.116-1.84 2.171v5.646c0 1.264.896 2.388 1.968 3.03 1.295 5.223 4.473 8.697 4.473 8.697l-.055 3.085c0 1.6-.997 2.25-2.514 3.02-7.36 2.179-12.728 4.351-16.1 6.514-2.479 1.589-3.203 7.253-2.171 16.992 6.632 1.611 16.415 2.446 29.349 2.507 12.842 0 22.664-.78 29.467-2.341.418-.096.728-.448.771-.874.775-7.686.128-12.252-1.94-13.698-3.349-2.341-8.716-4.511-16.1-6.509" fill-opacity=".05" fill="#191b24"/><path d="m55.757 45.607c-1.599-.741-2.3-2.259-2.3-3.914v-4.473c.348-.366 2.583-3.832 3.666-8.594 1.586-.454 2.775-1.811 2.775-3.425v-5.656c0-1.056-1.051-1.511-1.84-2.171v-6.514c0 0 .771-10.857-13.802-10.857-14.572 0-13.802 10.857-13.802 10.857v6.514c-.789.661-1.84 1.116-1.84 2.171v5.646c0 1.264.896 2.388 1.968 3.03 1.295 5.223 4.473 8.697 4.473 8.697l.214 4.669c0 1.6-.997 3.25-2.514 4.02 0 0-11.04 3.269-16.1 6.514-3.718 2.384-2.44 13.407-2.44 13.407 0 0 9.948 2.416 29.349 2.507 19.93 0 30.16-2.507 30.16-2.507 0 0 1.331-11.172-1.866-13.407-5.02-3.512-16.1-6.509-16.1-6.509" fill="#7890de"/><g transform="translate(0 30)"><path d="m23.805 5.555c-5.687-5.687-15.09-5.392-20.394.884-4.608 5.455-4.207 13.739.873 18.757 3.864 3.817 9.191 4.658 14.01 2.999l2.447 2.497h4.35v3.462h3.462v3.462h4.327v4.327h2.596v2.402c0 .698.034.905.477 1.347.336.336.781.541 1.254.577h6.923v-7.788l-18.493-17.628c2.621-5.193 2.502-10.96-1.836-15.298" fill-opacity=".05" fill="#191b24"/><path d="m24.805 4.285c-5.687-5.687-15.09-5.392-20.394.884-4.608 5.455-4.207 13.739.873 18.757 3.864 3.817 9.191 4.658 14.01 2.999l2.447 2.497h4.35v3.462h3.462v3.462h4.327v4.327h2.596v2.402c0 .698.034.905.477 1.347.336.336.781.541 1.254.577h6.923v-7.788l-18.493-17.628c2.621-5.193 2.502-10.96-1.836-15.298m-10.402 9.179c-1.69 1.689-4.43 1.689-6.119 0-1.69-1.69-1.69-4.43 0-6.12 1.689-1.689 4.429-1.689 6.119 0 1.689 1.69 1.689 4.43 0 6.12" fill="#e4c05c"/><path d="m24.365 23.365l-4.856 3.777 2.236 2.281h4.35v3.462h3.462v3.462h4.327v4.327h2.596v2.402c0 .698.034.905.477 1.347.336.336.781.541 1.254.577h6.923v-.865l-20.769-20.769" fill="#dda86f"/><path d="m11.385 4.327c-3.346 0-6.06 2.712-6.06 6.06 0 3.346 2.712 6.06 6.06 6.06 3.346 0 6.06-2.712 6.06-6.06 0-3.346-2.712-6.06-6.06-6.06m0 10.385c-2.389 0-4.327-1.938-4.327-4.327 0-2.389 1.938-4.327 4.327-4.327 2.389 0 4.327 1.938 4.327 4.327 0 2.389-1.938 4.327-4.327 4.327" fill="#bc9c4d"/></g></g></svg>
