<svg width="44" height="33" viewBox="0 0 44 33" fill="none" xmlns="http://www.w3.org/2000/svg">
<path d="M40.3333 0H3.66667C1.65 0 0 1.65 0 3.66667V29.3333C0 31.35 1.65 33 3.66667 33H40.3333C42.35 33 43.9817 31.35 43.9817 29.3333L44 3.66667C44 1.65 42.35 0 40.3333 0ZM14.6667 5.5C17.71 5.5 20.1667 7.95667 20.1667 11C20.1667 14.0433 17.71 16.5 14.6667 16.5C11.6233 16.5 9.16667 14.0433 9.16667 11C9.16667 7.95667 11.6233 5.5 14.6667 5.5ZM25.6667 27.5H3.66667V25.6667C3.66667 22 11 19.9833 14.6667 19.9833C18.3333 19.9833 25.6667 22 25.6667 25.6667V27.5ZM32.725 20.1667H35.7317L38.5 23.8333L34.8517 27.4817C32.45 25.685 30.6717 23.1183 29.8467 20.1667C29.5167 18.9933 29.3333 17.765 29.3333 16.5C29.3333 15.235 29.5167 14.0067 29.8467 12.8333C30.6717 9.86333 32.45 7.315 34.8517 5.51833L38.5 9.16667L35.7317 12.8333H32.725C32.3217 13.9883 32.0833 15.2167 32.0833 16.5C32.0833 17.7833 32.3217 19.0117 32.725 20.1667Z" fill="#73C9DB"/>
</svg>
