<svg width="33" height="35" viewBox="0 0 33 35" fill="none" xmlns="http://www.w3.org/2000/svg">
<path d="M22 16.5789V5.52632L16.5 0L11 5.52632V9.21053H0V35H33V16.5789H22ZM7.33333 31.3158H3.66667V27.6316H7.33333V31.3158ZM7.33333 23.9474H3.66667V20.2632H7.33333V23.9474ZM7.33333 16.5789H3.66667V12.8947H7.33333V16.5789ZM18.3333 31.3158H14.6667V27.6316H18.3333V31.3158ZM18.3333 23.9474H14.6667V20.2632H18.3333V23.9474ZM18.3333 16.5789H14.6667V12.8947H18.3333V16.5789ZM18.3333 9.21053H14.6667V5.52632H18.3333V9.21053ZM29.3333 31.3158H25.6667V27.6316H29.3333V31.3158ZM29.3333 23.9474H25.6667V20.2632H29.3333V23.9474Z" fill="#96CF91"/>
</svg>
