<?xml version="1.0" encoding="UTF-8"?>
<svg width="20px" height="20px" viewBox="0 0 20 20" version="1.1" xmlns="http://www.w3.org/2000/svg" xmlns:xlink="http://www.w3.org/1999/xlink">
    <defs>
        <path d="M4.3,0.5 L15.7,0.5 C17.7986821,0.5 19.5,2.20131795 19.5,4.3 L19.5,15.7 C19.5,17.7986821 17.7986821,19.5 15.7,19.5 L4.3,19.5 C2.20131795,19.5 0.5,17.7986821 0.5,15.7 L0.5,4.3 C0.5,2.20131795 2.20131795,0.5 4.3,0.5 Z M4.3,2.4 C3.25065898,2.4 2.4,3.25065898 2.4,4.3 L2.4,15.7 C2.4,16.749341 3.25065898,17.6 4.3,17.6 L15.7,17.6 C16.749341,17.6 17.6,16.749341 17.6,15.7 L17.6,4.3 C17.6,3.25065898 16.749341,2.4 15.7,2.4 L4.3,2.4 Z M6.64124279,9.72175146 L8.65649708,11.7370057 L13.3587572,7.03474568 C13.7297553,6.66374759 14.331262,6.66374759 14.7022601,7.03474568 C15.0732582,7.40574375 15.0732582,8.00725048 14.7022601,8.37824854 L9.32824854,13.7522601 C8.95725046,14.1232582 8.35574371,14.1232582 7.98474568,13.7522601 L5.2977399,11.0652543 C4.92674183,10.6942563 4.92674183,10.0927495 5.2977399,9.72175146 C5.66873798,9.35075338 6.27024471,9.35075338 6.64124279,9.72175146 Z" id="path-1"></path>
    </defs>
    <g id="Icon-/-Checkbox" stroke="none" stroke-width="1" fill="none" fill-rule="evenodd">
        <g id="Color-/-Brand-Primary">
            <mask id="mask-2" fill="white">
                <use xlink:href="#path-1"></use>
            </mask>
            <use id="Mask" fill="none" fill-rule="nonzero" xlink:href="#path-1"></use>
            <g id="Color-/-Default-Text" mask="url(#mask-2)" fill="currentColor">
                <rect id="Rectangle" x="0" y="0" width="20" height="20"></rect>
            </g>
        </g>
    </g>
</svg>
