<svg width="9" height="17" viewBox="0 0 9 17" fill="none" xmlns="http://www.w3.org/2000/svg">
<path d="M0.304239 1.57431L6.89387 7.39357C7.26666 7.72278 7.30172 8.29155 6.97217 8.66396C6.94878 8.69038 6.92387 8.71541 6.89754 8.73891L0.300568 14.629C-0.070422 14.9602 -0.102371 15.5292 0.229208 15.8998C0.560787 16.2704 1.13033 16.3023 1.50132 15.9711L8.0983 10.081C8.17727 10.0105 8.25202 9.9354 8.32217 9.85613C9.31082 8.73891 9.20566 7.0326 8.08728 6.04497L1.49765 0.225711C1.12486 -0.103499 0.555496 -0.068482 0.225945 0.303923C-0.103606 0.676329 -0.0685531 1.2451 0.304239 1.57431Z" fill="currentColor"/>
</svg>
