<svg width="9" height="17" viewBox="0 0 9 17" fill="none" xmlns="http://www.w3.org/2000/svg">
<path d="M0.0189115 8.359C0.0751655 9.0273 0.378964 9.67579 0.921108 10.1551L7.50391 15.9743C7.87632 16.3035 8.44509 16.2685 8.7743 15.8961C9.10351 15.5237 9.06849 14.9549 8.69609 14.6257L2.11328 8.80645C1.74088 8.47724 1.70586 7.90847 2.03507 7.53606C2.05843 7.50964 2.08332 7.48461 2.10961 7.46111L8.69976 1.57105C9.07036 1.23981 9.10228 0.670859 8.77104 0.300254C8.43981 -0.0703508 7.87085 -0.102266 7.50025 0.228969L0.910105 6.11903C0.831219 6.18954 0.756545 6.26462 0.68647 6.34389C0.32655 6.75103 0.111747 7.23642 0.0381629 7.73674C0.0136263 7.84784 0 7.97075 0 8.10001C0 8.19004 0.00660968 8.27699 0.0189115 8.359Z" fill="currentColor"/>
</svg>
