<?xml version="1.0" encoding="UTF-8"?>
<svg width="20px" height="20px" viewBox="0 0 20 20" version="1.1" xmlns="http://www.w3.org/2000/svg" xmlns:xlink="http://www.w3.org/1999/xlink">
    <defs>
        <path d="M9,18 C4.02943725,18 0,13.9705627 0,9 C0,4.02943725 4.02943725,0 9,0 C13.9705627,0 18,4.02943725 18,9 C18,13.9705627 13.9705627,18 9,18 Z M9,16.3636364 C13.066824,16.3636364 16.3636364,13.066824 16.3636364,9 C16.3636364,4.93317593 13.066824,1.63636364 9,1.63636364 C4.93317593,1.63636364 1.63636364,4.93317593 1.63636364,9 C1.63636364,13.066824 4.93317593,16.3636364 9,16.3636364 Z M6.10729044,8.76036011 L7.84291615,10.4959858 L11.8927096,6.44619245 C12.2122294,6.12667257 12.7302735,6.12667257 13.0497934,6.44619245 C13.3693133,6.76571232 13.3693133,7.2837564 13.0497934,7.60327625 L8.42145807,12.2316116 C8.10193819,12.5511315 7.5838941,12.5511315 7.26437427,12.2316116 L4.95020662,9.91744388 C4.63068674,9.59792408 4.63068674,9.07987999 4.95020662,8.76036011 C5.26972649,8.44084023 5.78777056,8.44084023 6.10729044,8.76036011 Z" id="path-1"></path>
    </defs>
    <g id="Icon-/-Circle-Check" stroke="none" stroke-width="1" fill="none" fill-rule="evenodd">
        <g id="Color-/-Brand-Primary" transform="translate(1.000000, 1.000000)">
            <mask id="mask-2" fill="white">
                <use xlink:href="#path-1"></use>
            </mask>
            <use id="Mask" fill="none" fill-rule="nonzero" xlink:href="#path-1"></use>
            <g id="Color-/-Default-Text" mask="url(#mask-2)" fill="currentColor">
                <g transform="translate(-1.000000, -1.000000)" id="Rectangle">
                    <rect x="0" y="0" width="20" height="20"></rect>
                </g>
            </g>
        </g>
    </g>
</svg>
