<?xml version="1.0" encoding="UTF-8"?>
<svg width="20px" height="20px" viewBox="0 0 20 20" version="1.1" xmlns="http://www.w3.org/2000/svg" xmlns:xlink="http://www.w3.org/1999/xlink">
    <defs>
        <path d="M7.78571429,2.11904762 C6.89153898,2.11904762 6.16666667,2.84391993 6.16666667,3.73809524 L6.16666667,10.2142857 C6.16666667,11.108461 6.89153898,11.8333333 7.78571429,11.8333333 L14.2619048,11.8333333 C15.1560801,11.8333333 15.8809524,11.108461 15.8809524,10.2142857 L15.8809524,3.73809524 C15.8809524,2.84391993 15.1560801,2.11904762 14.2619048,2.11904762 L7.78571429,2.11904762 Z M13.452381,13.452381 L13.452381,14.2619048 C13.452381,16.0502554 12.0026363,17.5 10.2142857,17.5 L3.73809524,17.5 C1.94974462,17.5 0.5,16.0502554 0.5,14.2619048 L0.5,7.78571429 C0.5,5.99736367 1.94974462,4.54761905 3.73809524,4.54761905 L4.54761905,4.54761905 L4.54761905,3.73809524 C4.54761905,1.94974462 5.99736367,0.5 7.78571429,0.5 L14.2619048,0.5 C16.0502554,0.5 17.5,1.94974462 17.5,3.73809524 L17.5,10.2142857 C17.5,12.0026363 16.0502554,13.452381 14.2619048,13.452381 L13.452381,13.452381 Z M11.8333333,13.452381 L7.78571429,13.452381 C5.99736367,13.452381 4.54761905,12.0026363 4.54761905,10.2142857 L4.54761905,6.16666667 L3.73809524,6.16666667 C2.84391993,6.16666667 2.11904762,6.89153898 2.11904762,7.78571429 L2.11904762,14.2619048 C2.11904762,15.1560801 2.84391993,15.8809524 3.73809524,15.8809524 L10.2142857,15.8809524 C11.108461,15.8809524 11.8333333,15.1560801 11.8333333,14.2619048 L11.8333333,13.452381 Z" id="path-1"></path>
    </defs>
    <g id="Icon-/-Copy" stroke="none" stroke-width="1" fill="none" fill-rule="evenodd">
        <g id="Color-/-Brand-Primary" transform="translate(1.000000, 1.000000)">
            <mask id="mask-2" fill="white">
                <use xlink:href="#path-1"></use>
            </mask>
            <use id="Mask" fill="none" fill-rule="nonzero" xlink:href="#path-1"></use>
            <g id="Color-/-Default-Text" mask="url(#mask-2)" fill="currentColor">
                <g transform="translate(-1.000000, -1.000000)" id="Rectangle">
                    <rect x="0" y="0" width="20" height="20"></rect>
                </g>
            </g>
        </g>
    </g>
</svg>
