<svg width="20" height="20" viewBox="0 0 20 20" fill="none" xmlns="http://www.w3.org/2000/svg">
<mask id="mask0" mask-type="alpha" maskUnits="userSpaceOnUse" x="0" y="0" width="20" height="20">
<path d="M12.381 4.30952H6.66667V5.2619C6.66667 5.78789 6.24027 6.21429 5.71429 6.21429C5.1883 6.21429 4.7619 5.78789 4.7619 5.2619V4.30952H3.80952C2.75755 4.30952 1.90476 5.16231 1.90476 6.21429V7.16667H17.1429V6.21429C17.1429 5.16231 16.2901 4.30952 15.2381 4.30952H14.2857V5.2619C14.2857 5.78789 13.8593 6.21429 13.3333 6.21429C12.8073 6.21429 12.381 5.78789 12.381 5.2619V4.30952ZM14.2857 2.40476H15.2381C17.342 2.40476 19.0476 4.11034 19.0476 6.21429V10.0238C19.0476 10.5498 18.6212 10.9762 18.0952 10.9762C17.5693 10.9762 17.1429 10.5498 17.1429 10.0238V9.07143H1.90476V15.7381C1.90476 16.7901 2.75755 17.6429 3.80952 17.6429H10.4762C11.0022 17.6429 11.4286 18.0693 11.4286 18.5952C11.4286 19.1212 11.0022 19.5476 10.4762 19.5476H3.80952C1.70558 19.5476 0 17.842 0 15.7381V6.21429C0 4.11034 1.70558 2.40476 3.80952 2.40476H4.7619V1.45238C4.7619 0.926395 5.1883 0.5 5.71429 0.5C6.24027 0.5 6.66667 0.926395 6.66667 1.45238V2.40476H12.381V1.45238C12.381 0.926395 12.8073 0.5 13.3333 0.5C13.8593 0.5 14.2857 0.926395 14.2857 1.45238V2.40476ZM17.1429 16.6905V18.5952C17.1429 19.1212 16.7165 19.5476 16.1905 19.5476C15.6645 19.5476 15.2381 19.1212 15.2381 18.5952V16.6905H13.3333C12.8073 16.6905 12.381 16.2641 12.381 15.7381C12.381 15.2121 12.8073 14.7857 13.3333 14.7857H15.2381V12.881C15.2381 12.355 15.6645 11.9286 16.1905 11.9286C16.7165 11.9286 17.1429 12.355 17.1429 12.881V14.7857H19.0476C19.5736 14.7857 20 15.2121 20 15.7381C20 16.2641 19.5736 16.6905 19.0476 16.6905H17.1429Z" fill="white"/>
</mask>
<g mask="url(#mask0)">
<path d="M12.381 4.30952H6.66667V5.2619C6.66667 5.78789 6.24027 6.21429 5.71429 6.21429C5.1883 6.21429 4.7619 5.78789 4.7619 5.2619V4.30952H3.80952C2.75755 4.30952 1.90476 5.16231 1.90476 6.21429V7.16667H17.1429V6.21429C17.1429 5.16231 16.2901 4.30952 15.2381 4.30952H14.2857V5.2619C14.2857 5.78789 13.8593 6.21429 13.3333 6.21429C12.8073 6.21429 12.381 5.78789 12.381 5.2619V4.30952ZM14.2857 2.40476H15.2381C17.342 2.40476 19.0476 4.11034 19.0476 6.21429V10.0238C19.0476 10.5498 18.6212 10.9762 18.0952 10.9762C17.5693 10.9762 17.1429 10.5498 17.1429 10.0238V9.07143H1.90476V15.7381C1.90476 16.7901 2.75755 17.6429 3.80952 17.6429H10.4762C11.0022 17.6429 11.4286 18.0693 11.4286 18.5952C11.4286 19.1212 11.0022 19.5476 10.4762 19.5476H3.80952C1.70558 19.5476 0 17.842 0 15.7381V6.21429C0 4.11034 1.70558 2.40476 3.80952 2.40476H4.7619V1.45238C4.7619 0.926395 5.1883 0.5 5.71429 0.5C6.24027 0.5 6.66667 0.926395 6.66667 1.45238V2.40476H12.381V1.45238C12.381 0.926395 12.8073 0.5 13.3333 0.5C13.8593 0.5 14.2857 0.926395 14.2857 1.45238V2.40476ZM17.1429 16.6905V18.5952C17.1429 19.1212 16.7165 19.5476 16.1905 19.5476C15.6645 19.5476 15.2381 19.1212 15.2381 18.5952V16.6905H13.3333C12.8073 16.6905 12.381 16.2641 12.381 15.7381C12.381 15.2121 12.8073 14.7857 13.3333 14.7857H15.2381V12.881C15.2381 12.355 15.6645 11.9286 16.1905 11.9286C16.7165 11.9286 17.1429 12.355 17.1429 12.881V14.7857H19.0476C19.5736 14.7857 20 15.2121 20 15.7381C20 16.2641 19.5736 16.6905 19.0476 16.6905H17.1429Z" fill="black"/>
<path d="M20 0H0V20H20V0Z" fill="#3D3157"/>
</g>
</svg>
