<svg width="16" height="19" viewBox="0 0 16 19" fill="none" xmlns="http://www.w3.org/2000/svg">
<path fill-rule="evenodd" clip-rule="evenodd" d="M4.44444 2.66667V0.888889C4.44444 0.397969 4.84241 0 5.33333 0H10.6667C11.1576 0 11.5556 0.397969 11.5556 0.888889V2.66667H15.1111C15.602 2.66667 16 3.06464 16 3.55556C16 4.04648 15.602 4.44444 15.1111 4.44444V15.1111C15.1111 17.0748 13.5192 18.6667 11.5556 18.6667H4.44444C2.48077 18.6667 0.888889 17.0748 0.888889 15.1111V4.44444C0.397969 4.44444 0 4.04648 0 3.55556C0 3.06464 0.397969 2.66667 0.888889 2.66667H4.44444ZM2.66667 4.44444V15.1111C2.66667 16.093 3.4626 16.8889 4.44444 16.8889H11.5556C12.5374 16.8889 13.3333 16.093 13.3333 15.1111V4.44444H2.66667ZM6.22222 6.22222C5.7313 6.22222 5.33333 6.62019 5.33333 7.11111V14.2222C5.33333 14.7131 5.7313 15.1111 6.22222 15.1111C6.71314 15.1111 7.11111 14.7131 7.11111 14.2222V7.11111C7.11111 6.62019 6.71314 6.22222 6.22222 6.22222ZM8.88889 7.11111C8.88889 6.62019 9.28686 6.22222 9.77778 6.22222C10.2687 6.22222 10.6667 6.62019 10.6667 7.11111V14.2222C10.6667 14.7131 10.2687 15.1111 9.77778 15.1111C9.28686 15.1111 8.88889 14.7131 8.88889 14.2222V7.11111ZM9.77778 2.66667H6.22222V1.77778H9.77778V2.66667Z" fill="#3D3157"/>
</svg>
