<svg width="13" height="16" viewBox="0 0 13 16" fill="none" xmlns="http://www.w3.org/2000/svg">
<path fill-rule="evenodd" clip-rule="evenodd" d="M7.50151 0.0559845C7.60881 0.101017 7.70293 0.171212 7.7765 0.259186L12.7407 5.2234C12.8288 5.29706 12.8991 5.39134 12.9442 5.49883C12.9837 5.58858 13.001 5.68 13 5.76927L13 5.77778V13C13 14.5955 11.7066 15.8889 10.1111 15.8889H2.88889C1.2934 15.8889 0 14.5955 0 13V2.88889C0 1.2934 1.2934 0 2.88889 0H7.22222L7.23073 4.91183e-05C7.32012 -0.00105195 7.41165 0.0163218 7.50151 0.0559845ZM7.94444 2.46175V4.33333C7.94444 4.73221 8.26779 5.05556 8.66667 5.05556H10.5382L7.94444 2.46175ZM1.44444 2.88889C1.44444 2.09114 2.09114 1.44444 2.88889 1.44444H6.5V4.33333C6.5 5.52995 7.47005 6.5 8.66667 6.5H11.5556V13C11.5556 13.7977 10.9089 14.4444 10.1111 14.4444H2.88889C2.09114 14.4444 1.44444 13.7977 1.44444 13V2.88889Z" fill="#A2A9B4"/>
</svg>
