<?xml version="1.0" encoding="UTF-8"?>
<svg width="20px" height="20px" viewBox="0 0 20 20" version="1.1" xmlns="http://www.w3.org/2000/svg" xmlns:xlink="http://www.w3.org/1999/xlink">
    <defs>
        <path d="M3.59527497,7.83671754 L8.0000392,13.3843978 L12.404805,7.83671754 L9.77781689,7.83671754 C9.28689707,7.83671754 8.888928,7.4468711 8.888928,6.96597115 L8.888928,2.61223918 C8.888928,2.13133922 8.49095884,1.74149279 8.00003911,1.74149279 C7.50911929,1.74149279 7.11115022,2.13133922 7.11115022,2.61223918 L7.11115022,6.96597115 C7.11115022,7.4468711 6.71318107,7.83671754 6.22226133,7.83671754 L3.59527497,7.83671754 Z M12.404805,6.09522475 C13.3866445,6.09522475 14.1825828,6.87491763 14.1825828,7.83671754 C14.1825828,8.22398354 14.05081,8.60020153 13.8080978,8.90589081 L9.403332,14.4535711 C8.80054071,15.2127699 7.68360631,15.349537 6.90858916,14.7590489 C6.79210133,14.6702965 6.68734791,14.5676811 6.59674631,14.4535708 L2.19198204,8.90589055 C1.58919093,8.14669165 1.72880783,7.05255422 2.50382511,6.46206625 C2.81588355,6.22430801 3.19994015,6.09522475 3.59527497,6.09522475 L5.33337244,6.09522475 L5.33337244,2.61223918 C5.33337244,1.16953932 6.52727973,0 8.00003911,0 C9.4727984,0 10.6667058,1.16953932 10.6667058,2.61223918 L10.6667058,6.09522475 L12.404805,6.09522475 Z M14.2222222,14.8027287 C14.2222222,14.3218288 14.6201914,13.9319823 15.1111111,13.9319823 C15.6020308,13.9319823 16,14.3218288 16,14.8027287 C16,16.7263285 14.4081236,18.2857143 12.4444444,18.2857143 L3.55555556,18.2857143 C1.59187644,18.2857143 0,16.7263285 0,14.8027287 C0,14.3218288 0.397969111,13.9319823 0.888888889,13.9319823 C1.37980867,13.9319823 1.77777778,14.3218288 1.77777778,14.8027287 C1.77777778,15.7645286 2.573716,16.5442215 3.55555556,16.5442215 L12.4444444,16.5442215 C13.426284,16.5442215 14.2222222,15.7645286 14.2222222,14.8027287 Z" id="path-1"></path>
    </defs>
    <g id="Icon-/-Download" stroke="none" stroke-width="1" fill="none" fill-rule="evenodd">
        <g id="Color-/-Brand-Primary" transform="translate(2.000000, 1.000000)">
            <mask id="mask-2" fill="white">
                <use xlink:href="#path-1"></use>
            </mask>
            <use id="Mask" fill="none" fill-rule="nonzero" xlink:href="#path-1"></use>
            <g id="Color-/-Default-Text" mask="url(#mask-2)" fill="currentColor">
                <g transform="translate(-2.000000, -1.000000)" id="Rectangle">
                    <rect x="0" y="0" width="20" height="20"></rect>
                </g>
            </g>
        </g>
    </g>
</svg>
