<?xml version="1.0" encoding="UTF-8"?>
<svg width="107px" height="24px" viewBox="0 0 107 24" version="1.1" xmlns="http://www.w3.org/2000/svg" xmlns:xlink="http://www.w3.org/1999/xlink">
    <defs></defs>
    <g id="Page-1" stroke="none" stroke-width="1" fill="none" fill-rule="evenodd">
        <g id="gfx-logo-dt-full" fill="#FFFFFF" fill-rule="nonzero">
            <path d="M92.715,24 L92.715,4.322 L95.562,4.322 L95.919,5.523 C98.184,3.681 106.904,1.736 106.617,12.538 C106.457,18.566 101.755,21.486 96.192,19.381 L96.192,24 L92.715,24 Z M101.28,7.34 C99.053,5.922 96.192,7.552 96.192,7.988 L96.192,16.386 C96.192,16.777 97.388,17.35 98.99,17.35 C100.93,17.35 102.971,16.576 102.971,12.196 C102.971,8.917 102.066,7.84 101.281,7.34 L101.28,7.34 Z M86.981,19.678 L86.507,18.554 C84.717,20.096 82.514,20.344 80.379,19.65 C78.552,19.056 77.803,17.63 77.707,15.852 C77.542,12.784 79.054,10.621 82.399,10.077 C83.674,9.87 86.27,9.917 86.27,9.917 C86.287,8.505 85.898,7.173 84.264,6.979 C82.597,6.772 80.49,7.401 78.871,7.792 L79.507,4.802 C81.459,4.143 83.464,3.954 85.517,4.168 C88.922,4.417 89.877,6.893 89.861,8.632 L89.89,19.678 L86.98,19.678 L86.981,19.678 Z M86.299,16.463 L86.316,12.688 C86.316,12.688 83.792,12.586 82.784,12.829 C81.784,13.071 81.288,13.751 81.172,14.6 C80.976,16.06 81.805,17.275 82.766,17.472 C83.886,17.7 84.995,17.593 85.99,16.973 C86.145,16.877 86.296,16.638 86.3,16.463 L86.299,16.463 Z M75.619,17.145 L76.821,19.482 C76.821,19.482 74.663,20.349 72.307,19.744 C70.546,19.312 69.741,18.092 69.734,16.001 L69.707,0.085 L73.206,0.085 L73.206,4.814 L76.88,4.814 L76.256,7.799 L73.23,7.799 L73.223,15.497 C73.243,17.809 75.619,17.145 75.619,17.145 Z M67.025,19.723 L63.668,19.723 L63.668,0.085 L67.025,0.085 L67.025,19.723 Z M47.075,13.078 L38.009,13.165 C37.991,16.047 39.739,17.327 41.633,17.315 C44.251,17.243 46.286,16.019 46.286,16.019 L46.84,18.472 C43.083,20.543 40.193,20.07 38.629,19.508 C35.151,18.284 34.502,14.36 34.516,11.188 C34.479,8.09 35.991,4.102 41.644,4.159 C48.856,4.521 47.074,13.078 47.074,13.078 L47.075,13.078 Z M38.039,10.655 L44.048,10.615 C44.07,9.17 43.982,6.975 41.178,6.937 C38.208,6.897 38.075,9.577 38.039,10.655 Z M58.079,19.678 L57.604,18.554 C55.814,20.096 53.61,20.344 51.476,19.65 C49.649,19.056 48.9,17.63 48.804,15.852 C48.639,12.784 50.151,10.621 53.495,10.077 C54.771,9.87 57.367,9.917 57.367,9.917 C57.384,8.505 56.995,7.173 55.361,6.979 C53.694,6.772 51.587,7.401 49.968,7.792 L50.604,4.802 C52.556,4.143 54.561,3.954 56.614,4.168 C60.018,4.417 60.974,6.893 60.958,8.632 L60.986,19.678 L58.078,19.678 L58.079,19.678 Z M57.396,16.463 L57.413,12.688 C57.413,12.688 54.889,12.586 53.881,12.829 C52.881,13.071 52.384,13.751 52.268,14.6 C52.072,16.06 52.902,17.275 53.863,17.472 C54.983,17.7 56.092,17.593 57.086,16.973 C57.242,16.877 57.393,16.638 57.396,16.463 Z M32.698,0 L32.698,19.678 L29.56,19.678 L29.276,18.484 C27.011,20.326 18.364,22.279 18.651,11.477 C18.811,5.449 23.658,2.529 29.221,4.633 L29.221,0 L32.698,0 Z M23.988,16.675 C26.215,18.093 29.221,16.463 29.221,16.027 L29.221,7.63 C29.221,7.238 27.916,6.666 26.314,6.666 C24.374,6.666 22.224,7.44 22.224,11.82 C22.224,15.099 23.201,16.175 23.987,16.676 L23.988,16.675 Z" id="Shape"></path>
            <polyline id="Shape" points="10.92 0.063 21.106 0.046 10.398 10.78 14.276 14.697 14.281 19.683 9.084 19.679 0 10.782 10.92 0.063"></polyline>
        </g>
    </g>
</svg>
