<svg xmlns="http://www.w3.org/2000/svg" width="80" height="29" viewBox="0 0 80 19">
    <g fill="#fff" fill-rule="evenodd">
        <path d="m33.922 17.494l.948 1.839s-1.702.683-3.56.207c-1.388-.34-2.023-1.3-2.029-2.947l-.021-12.526h2.759v3.722h2.897l-.492 2.35h-2.386l-.005 6.06c.015 1.819 1.889 1.297 1.889 1.297m-6.14-13.494v15.487h-2.474l-.224-.939c-1.786 1.45-8.605 2.987-8.378-5.515.126-4.745 3.948-7.04 8.335-5.386v-3.647h2.742m-6.868 13.12c1.757 1.116 4.127-.167 4.127-.51v-6.61c0-.308-1.029-.758-2.292-.758-1.53 0-3.225.609-3.225 4.056 0 2.581.771 3.428 1.391 3.822"></path>
        <path d="m10.611 4.05l8.03-.01-8.443 8.445 3.057 3.083.005 3.924-4.098-.003-7.163-7 8.611-8.435"></path>    
    </g>
</svg>
