<svg xmlns="http://www.w3.org/2000/svg" width="80" height="19" viewBox="0 0 80 19">
    <g fill="#fff" fill-rule="evenodd">
        <path d="M69.536 18.75V3.992h2.136l.267.9c1.699-1.381 8.239-2.84 8.024 5.261-.12 4.522-3.646 6.711-7.819 5.133v3.464h-2.608zM75.96 6.255c-1.67-1.064-3.816.159-3.816.486v6.299c0 .293.897.722 2.099.722 1.455 0 2.985-.58 2.985-3.865 0-2.46-.678-3.267-1.268-3.642zm-10.724 9.253l-.356-.843c-1.342 1.157-2.995 1.343-4.596.823-1.37-.446-1.932-1.515-2.003-2.85-.125-2.3 1.01-3.922 3.518-4.33.957-.156 2.904-.12 2.904-.12.012-1.06-.28-2.058-1.505-2.203-1.25-.156-2.83.316-4.044.609l.476-2.243c1.464-.494 2.968-.635 4.508-.475 2.553.187 3.27 2.043 3.258 3.348l.021 8.284h-2.181zm-.512-2.411l.013-2.83s-1.893-.077-2.649.105c-.75.181-1.122.691-1.21 1.328-.146 1.095.476 2.006 1.197 2.154.84.171 1.671.091 2.417-.374.117-.073.23-.251.232-.383zm-8.01.512l.902 1.752s-1.619.65-3.386.197c-1.32-.324-1.925-1.239-1.93-2.808L52.28.814h2.624V4.36h2.756l-.468 2.24h-2.27l-.004 5.773c.014 1.734 1.796 1.236 1.796 1.236zm-6.446 1.934h-2.517V.813h2.517v14.73zm-14.962-4.985l-6.8.066c-.013 2.162 1.298 3.121 2.718 3.112 1.964-.054 3.49-.972 3.49-.972l.416 1.84c-2.818 1.554-4.986 1.198-6.158.777-2.609-.918-3.096-3.861-3.085-6.24-.028-2.324 1.106-5.314 5.346-5.272 5.409.272 4.073 6.69 4.073 6.69zm-6.777-1.817l4.507-.03c.017-1.083-.05-2.73-2.153-2.758-2.227-.03-2.327 1.98-2.354 2.788zm15.03 6.767l-.356-.843c-1.343 1.157-2.995 1.343-4.596.823-1.37-.446-1.932-1.515-2.004-2.85-.124-2.3 1.01-3.922 3.519-4.33.956-.156 2.903-.12 2.903-.12.013-1.06-.279-2.058-1.505-2.203-1.25-.156-2.83.316-4.044.609l.477-2.243c1.464-.494 2.968-.635 4.507-.475 2.554.187 3.27 2.043 3.259 3.348l.02 8.284h-2.18zm-.512-2.411l.013-2.83s-1.893-.077-2.65.105c-.75.181-1.122.691-1.209 1.328-.147 1.095.475 2.006 1.196 2.154.84.171 1.672.091 2.418-.374.116-.073.23-.251.232-.383zM24.524.75v14.758H22.17l-.213-.895c-1.699 1.382-8.184 2.846-7.969-5.255.12-4.522 3.756-6.711 7.928-5.133V.75h2.608zM17.99 13.256c1.67 1.064 3.925-.159 3.925-.486V6.472c0-.294-.979-.723-2.18-.723-1.455 0-3.068.58-3.068 3.865 0 2.46.733 3.267 1.323 3.642zM8.19.798l7.64-.014-8.031 8.052 2.908 2.937.004 3.74-3.898-.003L0 8.836 8.19.798"/>
    </g>
</svg>
