<?xml version="1.0" encoding="UTF-8"?>
<svg width="20px" height="20px" viewBox="0 0 20 20" version="1.1" xmlns="http://www.w3.org/2000/svg" xmlns:xlink="http://www.w3.org/1999/xlink">
    <defs>
        <path d="M9.16926573,11.3821904 C9.42952436,11.4843241 9.71021291,11.5385347 10,11.5385347 C11.2551926,11.5385347 12.2727273,10.5210001 12.2727273,9.26580742 C12.2727273,8.97602033 12.2185167,8.69533178 12.116383,8.43507314 L9.16926573,11.3821904 Z M13.4636044,7.08785174 C13.8682791,7.73031423 14.0909091,8.48101896 14.0909091,9.26580742 C14.0909091,11.5251541 12.2593467,13.3567165 10,13.3567165 C9.21521155,13.3567165 8.46450682,13.1340865 7.82204433,12.7294118 L6.0023951,14.5490611 C7.25952232,15.2452053 8.62616209,15.6294438 10,15.6294438 C14.0433,15.6294438 18.1818182,11.9131925 18.1818182,9.26580742 C18.1818182,8.08470942 17.130327,6.36270467 15.5240078,5.02744828 L13.4636044,7.08785174 Z M16.8145721,3.73688401 C18.7314226,5.37452336 20,7.51425314 20,9.26580742 C20,12.9635736 15.0064381,17.4476256 10,17.4476256 C8.13432578,17.4476256 6.30612405,16.8815901 4.67342846,15.8780276 L2.28610785,18.2653482 C1.93108575,18.6203703 1.35548124,18.6203703 1.00045915,18.2653482 C0.645437064,17.9103261 0.645437064,17.3347217 1.00045915,16.9796996 L3.9015779,14.0785808 C3.90912419,14.070759 3.91678818,14.0630963 3.92456507,14.0555937 L14.7913145,3.18884422 C14.7988608,3.18102236 14.8065247,3.17335971 14.8143016,3.16585707 L17.7138922,0.266266561 C18.0689143,-0.0887555205 18.6445187,-0.0887555205 18.9995408,0.266266561 C19.3545629,0.621288652 19.3545629,1.19689317 18.9995408,1.55191526 L16.8145721,3.73688401 Z M11.7764113,3.11344551 C11.1888156,2.97381552 10.5949439,2.90217105 10,2.90217105 C5.9567,2.90217105 1.81818182,6.61842232 1.81818182,9.26580742 C1.81818182,9.92631896 2.16827185,10.8210719 2.8160176,11.7324933 C3.10687099,12.1417434 3.01089148,12.7092894 2.60164136,13.0001429 C2.19239124,13.2909962 1.6248452,13.1950167 1.33399181,12.7857666 C0.485241682,11.5915186 0,10.3513479 0,9.26580742 C0,5.56804123 4.99356189,1.08398923 10,1.08398923 C10.7386383,1.08398923 11.4734059,1.17263132 12.1967596,1.34452143 C12.6852345,1.46059743 12.9871235,1.95068275 12.8710475,2.43915764 C12.7549715,2.92763254 12.2648862,3.2295215 11.7764113,3.11344551 Z" id="path-1"></path>
    </defs>
    <g id="Icon-/-Hide" stroke="none" stroke-width="1" fill="none" fill-rule="evenodd">
        <g id="Color-/-Brand-Primary" transform="translate(0.000000, 0.500000)">
            <mask id="mask-2" fill="white">
                <use xlink:href="#path-1"></use>
            </mask>
            <use id="Mask" fill="none" fill-rule="nonzero" xlink:href="#path-1"></use>
            <g id="Color-/-Default-Text" mask="url(#mask-2)" fill="currentColor">
                <g transform="translate(0.000000, -1.000000)" id="Rectangle">
                    <rect x="0" y="0" width="20" height="20"></rect>
                </g>
            </g>
        </g>
    </g>
</svg>
