<?xml version="1.0" encoding="UTF-8"?>
<svg width="20px" height="20px" viewBox="0 0 20 20" version="1.1" xmlns="http://www.w3.org/2000/svg" xmlns:xlink="http://www.w3.org/1999/xlink">
    <defs>
        <path d="M10,16.3636364 C4.99356189,16.3636364 0,11.8795844 0,8.18181818 C0,4.484052 4.99356189,0 10,0 C15.0064381,0 20,4.484052 20,8.18181818 C20,11.8795844 15.0064381,16.3636364 10,16.3636364 Z M10,14.5454545 C14.0433,14.5454545 18.1818182,10.8292033 18.1818182,8.18181818 C18.1818182,5.53443308 14.0433,1.81818182 10,1.81818182 C5.9567,1.81818182 1.81818182,5.53443308 1.81818182,8.18181818 C1.81818182,10.8292033 5.9567,14.5454545 10,14.5454545 Z M10,12.2727273 C7.7406533,12.2727273 5.90909091,10.4411649 5.90909091,8.18181818 C5.90909091,5.92247148 7.7406533,4.09090909 10,4.09090909 C12.2593467,4.09090909 14.0909091,5.92247148 14.0909091,8.18181818 C14.0909091,10.4411649 12.2593467,12.2727273 10,12.2727273 Z M10,10.4545455 C11.2551926,10.4545455 12.2727273,9.43701082 12.2727273,8.18181818 C12.2727273,6.92662555 11.2551926,5.90909091 10,5.90909091 C8.74480736,5.90909091 7.72727273,6.92662555 7.72727273,8.18181818 C7.72727273,9.43701082 8.74480736,10.4545455 10,10.4545455 Z" id="path-1"></path>
    </defs>
    <g id="Icon-/-Eye" stroke="none" stroke-width="1" fill="none" fill-rule="evenodd">
        <g id="Color-/-Brand-Primary" transform="translate(0.000000, 2.000000)">
            <mask id="mask-2" fill="white">
                <use xlink:href="#path-1"></use>
            </mask>
            <use id="Mask" fill="none" fill-rule="nonzero" xlink:href="#path-1"></use>
            <g id="Color-/-Default-Text" mask="url(#mask-2)" fill="currentColor">
                <g transform="translate(0.000000, -2.000000)" id="Rectangle">
                    <rect x="0" y="0" width="20" height="20"></rect>
                </g>
            </g>
        </g>
    </g>
</svg>
