<svg xmlns="http://www.w3.org/2000/svg" viewBox="0 0 107 24"><defs><linearGradient id="0" x1="0%" y1="100%" y2="0%"><stop stop-color="#683995"/><stop offset="100%" stop-color="#3954a2"/></linearGradient></defs><g fill="none" fill-rule="evenodd"><path fill="#252b33" d="M92.715 24V4.322h2.847l.357 1.201c2.265-1.842 10.985-3.787 10.698 7.015-.16 6.028-4.862 8.948-10.425 6.843V24h-3.477zm8.565-16.66c-2.227-1.418-5.088.212-5.088.648v8.398c0 .391 1.196.964 2.798.964 1.94 0 3.981-.774 3.981-5.154 0-3.279-.905-4.356-1.69-4.856zM86.981 19.678l-.474-1.124c-1.79 1.542-3.993 1.79-6.128 1.096-1.827-.594-2.576-2.02-2.672-3.798-.165-3.068 1.347-5.231 4.692-5.775 1.275-.207 3.871-.16 3.871-.16.017-1.412-.372-2.744-2.006-2.938-1.667-.207-3.774.422-5.393.813l.636-2.99c1.952-.659 3.957-.848 6.01-.634 3.405.249 4.36 2.725 4.344 4.464l.029 11.046H86.98zm-.682-3.215l.017-3.775s-2.524-.102-3.532.141c-1 .242-1.496.922-1.612 1.771-.196 1.46.633 2.675 1.594 2.872 1.12.228 2.229.121 3.224-.499.155-.096.306-.335.31-.51zm-10.68.682l1.202 2.337s-2.158.867-4.514.262c-1.761-.432-2.566-1.652-2.573-3.743L69.707.085h3.499v4.729h3.674l-.624 2.985H73.23l-.007 7.698c.02 2.312 2.396 1.648 2.396 1.648zm-8.594 2.578h-3.357V.085h3.357v19.638zm-19.95-6.645l-9.066.087c-.018 2.882 1.73 4.162 3.624 4.15 2.618-.072 4.653-1.296 4.653-1.296l.554 2.453c-3.757 2.071-6.647 1.598-8.211 1.036-3.478-1.224-4.127-5.148-4.113-8.32-.037-3.098 1.475-7.086 7.128-7.029 7.212.362 5.43 8.919 5.43 8.919zm-9.036-2.423l6.009-.04c.022-1.445-.066-3.64-2.87-3.678-2.97-.04-3.103 2.64-3.139 3.718zm20.04 9.023l-.475-1.124c-1.79 1.542-3.994 1.79-6.128 1.096-1.827-.594-2.576-2.02-2.672-3.798-.165-3.068 1.347-5.231 4.691-5.775 1.276-.207 3.872-.16 3.872-.16.017-1.412-.372-2.744-2.006-2.938-1.667-.207-3.774.422-5.393.813l.636-2.99c1.952-.659 3.957-.848 6.01-.634 3.404.249 4.36 2.725 4.344 4.464l.028 11.046h-2.908zm-.683-3.215l.017-3.775s-2.524-.102-3.532.141c-1 .242-1.497.922-1.613 1.771-.196 1.46.634 2.675 1.595 2.872 1.12.228 2.229.121 3.223-.499.156-.096.307-.335.31-.51zM32.698 0v19.678H29.56l-.284-1.194c-2.265 1.842-10.912 3.795-10.625-7.007.16-6.028 5.007-8.948 10.57-6.844V0h3.477zm-8.71 16.675c2.227 1.418 5.233-.212 5.233-.648V7.63c0-.392-1.305-.964-2.907-.964-1.94 0-4.09.774-4.09 5.154 0 3.279.977 4.355 1.763 4.856z"/><path fill="url(#0)" d="M10.92.063L21.106.046 10.398 10.78l3.878 3.917.005 4.986-5.197-.004L0 10.782 10.92.063"/></g></svg>