<svg width="289" height="405" viewBox="0 0 289 405" fill="none" xmlns="http://www.w3.org/2000/svg">
<path fill-rule="evenodd" clip-rule="evenodd" d="M81.456 82.389C78.7404 76.6774 77.5861 70.2602 79.7452 63.9947C85.966 45.942 110.493 56.852 112.987 67.473C115.481 78.094 108.577 101.49 101.694 101.425C98.9485 101.398 93.9129 98.3114 89.2447 93.464L86.1149 119.122L65.4814 113.594L81.456 82.389Z" fill="#D4A181"/>
<path fill-rule="evenodd" clip-rule="evenodd" d="M88.944 83.0088C85.0693 87.2345 80.5396 89.9849 77.0042 89.0376C70.2891 87.2383 67.9201 76.981 70.5066 67.3282C70.5975 66.9891 70.6944 66.654 70.7973 66.3231C62.3878 69.2943 54.3388 77.4357 44.9398 74.9172C32.1526 71.4909 33.9852 44.3383 51.8507 49.1253C64.0007 52.3809 69.5025 55.7537 73.9511 59.7534C75.7343 57.1617 77.9285 55.169 80.2732 53.9951C80.8663 53.6042 81.6964 53.3006 82.7196 53.0871C83.3514 52.9333 83.9874 52.8406 84.6229 52.8128C88.035 52.5036 92.7499 52.904 97.8226 54.0752C98.7699 54.2939 99.6941 54.5312 100.59 54.7842C101.874 50.0525 106.745 47.2479 111.484 48.5177C116.232 49.79 119.05 54.6705 117.777 59.4186C116.547 64.0105 111.942 66.797 107.345 65.8247C104.539 65.93 101.051 65.6248 97.2908 64.8828C97.2881 66.3275 97.0724 67.9117 96.6085 69.643C96.1989 71.1718 95.5958 72.7478 94.844 74.3108C94.298 73.1439 93.3933 72.2356 92.3061 71.9442C89.2648 71.1293 86.4773 73.064 85.7655 75.7204C84.8622 79.0919 86.155 82.0524 88.944 83.0088Z" fill="#191847"/>
<path fill-rule="evenodd" clip-rule="evenodd" d="M39.1625 192.276L71.7661 304.625L87.1012 388.979H102.493L87.1286 192.276H39.1625Z" fill="#BA8B72"/>
<path fill-rule="evenodd" clip-rule="evenodd" d="M24.5102 192.276C26.7851 250.641 25.8879 282.475 25.3788 287.778C24.8696 293.08 21.979 328.594 2.28186 390.759H18.2907C44.3764 331.122 53.4826 295.609 56.4745 287.778C59.4663 279.947 68.3025 248.113 81.203 192.276H24.5102Z" fill="#D4A181"/>
<path fill-rule="evenodd" clip-rule="evenodd" d="M38.4626 192.276C46.9433 230.936 61.6113 292.647 82.4665 377.408H104.979C106.642 290.408 99.5682 233.148 87.3188 192.276H38.4626Z" fill="#69A1AC"/>
<path fill-rule="evenodd" clip-rule="evenodd" d="M24.3964 192.276C26.6245 250.641 20.8504 308.141 2.96436 378.317H26.9837C53.1174 319.57 71.8482 262.354 84.6495 192.276H24.3964Z" fill="#89C5CC"/>
<path fill-rule="evenodd" clip-rule="evenodd" d="M0 402.33L0.883314 388.089C6.05499 389.602 12.5326 389.008 20.3162 386.309C28.6854 392.237 39.2212 396.285 51.9235 398.453C52.8927 398.618 53.5442 399.538 53.3788 400.507C53.3681 400.57 53.354 400.632 53.3367 400.693L52.1155 405H20.3162H1.76663L0 402.33Z" fill="#191847"/>
<path fill-rule="evenodd" clip-rule="evenodd" d="M83.6654 402.33L84.5487 388.089C89.7204 389.602 96.1981 389.008 103.982 386.309C112.351 392.237 122.887 396.285 135.589 398.453C136.558 398.618 137.21 399.538 137.044 400.507C137.034 400.57 137.019 400.632 137.002 400.693L135.781 405H103.982H85.4321L83.6654 402.33Z" fill="#191847"/>
<path d="M117.518 133.409L84.1552 144.707L93.2641 158.747L118.94 142.404C131.152 141.248 136.892 139.839 136.159 138.178C135.061 135.685 131.613 137.01 130.6 135.448C129.586 133.885 132.799 129.614 136.02 125.692C139.242 121.769 136.552 121.686 134.941 122.047C129.444 124.506 123.636 128.293 117.518 133.409Z" fill="#D4A181"/>
<path fill-rule="evenodd" clip-rule="evenodd" d="M69.9927 138.383C80.6691 140.149 95.2765 140.404 112.136 133.453L115.75 147.783C103.461 156.318 87.2506 162.253 74.4554 159.624C64.3721 157.553 61.3543 144.383 69.9927 138.383Z" fill="#2026A2"/>
<path d="M275.195 38.9415L142.941 25.4872L123.904 212.622L256.158 226.077L275.195 38.9415Z" fill="white"/>
<path d="M260.273 56.0579L154.11 45.2579L153.103 55.1544L259.266 65.9544L260.273 56.0579Z" fill="#E3E3E3"/>
<path d="M250.525 151.875L144.362 141.075L143.355 150.972L249.518 161.772L250.525 151.875Z" fill="#E3E3E3"/>
<path d="M248.329 173.467L142.166 162.667L141.159 172.564L247.322 183.364L248.329 173.467Z" fill="#E3E3E3"/>
<path d="M246.132 195.06L139.969 184.26L138.962 194.157L245.125 204.957L246.132 195.06Z" fill="#E3E3E3"/>
<path d="M174.435 107.848C173.693 107.869 172.937 107.872 172.167 107.858C171.396 107.844 170.641 107.832 169.903 107.821C169.454 107.808 168.941 107.788 168.365 107.761C167.824 107.706 167.27 107.618 166.703 107.496C166.169 107.377 165.639 107.21 165.114 106.996C164.624 106.753 164.221 106.439 163.907 106.053C163.535 105.597 163.318 105.044 163.255 104.395C163.196 103.713 163.283 103.014 163.517 102.298C164.004 100.675 164.53 98.9759 165.097 97.2002C165.664 95.4244 166.211 93.6788 166.739 91.9635C167.271 90.2163 167.747 88.5439 168.167 86.9462C168.586 85.3485 168.877 83.9145 169.038 82.6443C169.077 82.2623 169.17 81.9822 169.317 81.8042C169.467 81.5943 169.606 81.4958 169.733 81.5088C170.023 81.5061 170.299 81.6307 170.563 81.8827C170.862 82.1061 171.123 82.39 171.345 82.7342C171.599 83.0817 171.804 83.4403 171.959 83.8099C172.15 84.151 172.266 84.4361 172.307 84.6655C172.417 85.1592 172.485 85.6003 172.51 85.9888C172.538 86.3455 172.516 86.7132 172.446 87.092C172.407 87.474 172.331 87.9006 172.219 88.3716C172.142 88.8141 172.022 89.3647 171.858 90.0236C171.746 90.4946 171.522 91.276 171.185 92.3675C170.849 93.4591 170.47 94.6589 170.047 95.9668C169.625 97.2748 169.202 98.5827 168.78 99.8907C168.389 101.202 168.053 102.293 167.771 103.165C167.818 103.331 168.062 103.468 168.501 103.577C168.972 103.69 169.544 103.764 170.215 103.8C170.919 103.839 171.672 103.868 172.474 103.885C173.312 103.874 174.149 103.863 174.987 103.851C175.116 102.899 175.245 101.948 175.374 100.996C175.503 100.044 175.611 99.1382 175.698 98.2786C175.789 97.3872 175.872 96.5754 175.946 95.8432C176.021 95.111 176.069 94.4726 176.093 93.9282C176.11 93.1258 176.006 92.4076 175.781 91.7736C175.588 91.1428 175.393 90.5279 175.197 89.929C175.076 89.5308 175.047 89.0292 175.109 88.4243C175.173 87.7876 175.344 87.3708 175.622 87.1739C175.724 87.1199 175.853 87.1169 176.009 87.165C176.196 87.2162 176.381 87.2993 176.562 87.4143C176.775 87.5325 176.971 87.6649 177.149 87.8117C177.362 87.9299 177.528 88.0432 177.645 88.1517C177.998 88.4771 178.332 88.8327 178.646 89.2185C178.993 89.6075 179.285 90.0554 179.523 90.5621C179.793 91.072 179.991 91.655 180.117 92.3112C180.246 92.9355 180.283 93.6791 180.228 94.5419C180.143 95.6912 180 97.0919 179.8 98.7442C179.635 100.368 179.433 102.036 179.195 103.749L180.164 103.702C180.581 103.713 181.025 103.774 181.497 103.886C181.971 103.967 182.408 104.092 182.809 104.261C183.242 104.434 183.59 104.646 183.854 104.898C184.153 105.121 184.337 105.365 184.407 105.63C184.473 105.926 184.334 106.185 183.99 106.408C183.678 106.633 183.273 106.817 182.776 106.96C182.314 107.073 181.838 107.17 181.347 107.248C180.857 107.327 180.481 107.385 180.22 107.423C179.959 107.461 179.682 107.497 179.389 107.532C179.131 107.538 178.871 107.559 178.61 107.597C178.462 108.418 178.303 109.19 178.133 109.913C177.995 110.639 177.863 111.301 177.738 111.899C177.523 112.746 177.232 113.552 176.865 114.319C176.501 115.054 176.1 115.673 175.663 116.175C175.254 116.712 174.845 117.105 174.433 117.353C174.054 117.603 173.726 117.667 173.449 117.542C173.265 117.459 173.165 117.175 173.15 116.691C173.131 116.239 173.153 115.711 173.214 115.106C173.279 114.469 173.36 113.834 173.457 113.2C173.588 112.538 173.71 111.972 173.822 111.501L174.435 107.848ZM200.251 90.2584C201.735 90.2163 202.956 90.3888 203.913 90.7757C204.903 91.1659 205.729 91.5876 206.39 92.0408C207.411 92.7558 208.204 93.6567 208.769 94.7435C209.369 95.8016 209.798 96.955 210.057 98.2036C210.351 99.4237 210.495 100.693 210.49 102.011C210.52 103.301 210.46 104.517 210.312 105.66C210.057 107.532 209.6 109.335 208.941 111.069C208.282 112.803 207.42 114.324 206.354 115.63C205.292 116.905 204.018 117.886 202.533 118.571C201.077 119.291 199.411 119.54 197.536 119.317C195.502 119.078 193.798 118.438 192.424 117.398C191.082 116.36 190.003 115.109 189.187 113.643C188.407 112.148 187.881 110.518 187.61 108.754C187.374 106.961 187.344 105.205 187.519 103.486C187.755 101.162 188.251 98.9766 189.006 96.9305C189.761 94.8844 190.894 93.0698 192.406 91.4867C193.379 90.4599 194.519 89.5305 195.826 88.6985C197.165 87.8698 198.449 87.2606 199.679 86.8711C200.109 86.754 200.488 86.6639 200.816 86.6008C201.179 86.5091 201.405 86.4999 201.494 86.5733C201.765 86.7616 201.882 87.0309 201.846 87.3811C201.846 87.7027 201.762 88.048 201.596 88.4171C201.462 88.7894 201.265 89.1393 201.007 89.4668C200.748 89.7943 200.496 90.0582 200.251 90.2584ZM198.745 90.8289C197.7 91.3016 196.793 91.9973 196.024 92.9162C195.259 93.8033 194.622 94.8482 194.113 96.0509C193.608 97.2218 193.206 98.4836 192.908 99.8364C192.644 101.161 192.477 102.494 192.404 103.838C192.32 104.987 192.391 106.185 192.618 107.43C192.845 108.675 193.193 109.837 193.663 110.914C194.135 111.959 194.737 112.84 195.468 113.558C196.199 114.276 197.046 114.651 198.007 114.685C199.192 114.741 200.233 114.461 201.132 113.845C202.035 113.197 202.81 112.375 203.458 111.379C204.106 110.384 204.619 109.294 204.997 108.11C205.374 106.926 205.618 105.793 205.728 104.711C205.864 103.374 205.887 102.041 205.797 100.713C205.71 99.3536 205.45 98.1209 205.016 97.0153C204.616 95.881 203.989 94.9327 203.134 94.1702C202.314 93.3792 201.24 92.8679 199.913 92.6363C199.753 92.6201 199.449 92.6053 199 92.5918C198.555 92.5464 198.275 92.4536 198.16 92.3133C198.046 92.173 198.054 91.9326 198.185 91.5922C198.348 91.2549 198.535 91.0005 198.745 90.8289ZM224.894 112.981C224.152 113.002 223.395 113.006 222.625 112.992C221.854 112.977 221.1 112.965 220.361 112.954C219.912 112.941 219.4 112.921 218.823 112.894C218.282 112.839 217.728 112.751 217.162 112.629C216.627 112.51 216.097 112.344 215.572 112.129C215.082 111.886 214.68 111.572 214.365 111.186C213.993 110.73 213.776 110.178 213.714 109.528C213.654 108.846 213.742 108.148 213.975 107.432C214.462 105.808 214.989 104.109 215.555 102.333C216.122 100.558 216.669 98.812 217.198 97.0966C217.729 95.3495 218.205 93.677 218.625 92.0793C219.045 90.4816 219.335 89.0476 219.497 87.7775C219.536 87.3954 219.628 87.1154 219.775 86.9373C219.925 86.7274 220.064 86.629 220.191 86.6419C220.481 86.6392 220.758 86.7639 221.022 87.0159C221.321 87.2393 221.581 87.5231 221.803 87.8674C222.058 88.2149 222.262 88.5734 222.418 88.9431C222.608 89.2841 222.724 89.5693 222.765 89.7986C222.876 90.2923 222.943 90.7335 222.968 91.122C222.996 91.4786 222.975 91.8464 222.904 92.2251C222.865 92.6072 222.79 93.0337 222.677 93.5048C222.6 93.9472 222.48 94.4979 222.316 95.1567C222.204 95.6278 221.98 96.4091 221.644 97.5007C221.307 98.5923 220.928 99.792 220.506 101.1C220.083 102.408 219.66 103.716 219.238 105.024C218.847 106.335 218.511 107.427 218.229 108.299C218.277 108.464 218.52 108.602 218.959 108.711C219.43 108.823 220.002 108.897 220.674 108.933C221.377 108.973 222.13 109.001 222.933 109.018C223.77 109.007 224.608 108.996 225.445 108.984C225.574 108.033 225.703 107.081 225.832 106.129C225.961 105.177 226.069 104.271 226.157 103.412C226.247 102.52 226.33 101.709 226.404 100.976C226.479 100.244 226.528 99.6058 226.551 99.0613C226.568 98.259 226.464 97.5408 226.239 96.9067C226.046 96.276 225.851 95.6611 225.655 95.0621C225.535 94.6639 225.505 94.1624 225.567 93.5575C225.632 92.9208 225.803 92.5039 226.08 92.307C226.182 92.253 226.311 92.2501 226.467 92.2981C226.655 92.3494 226.839 92.4325 227.021 92.5474C227.234 92.6656 227.429 92.7981 227.607 92.9449C227.821 93.063 227.986 93.1763 228.104 93.2848C228.456 93.6102 228.79 93.9658 229.105 94.3516C229.451 94.7407 229.743 95.1885 229.981 95.6952C230.251 96.2051 230.449 96.7882 230.575 97.4443C230.705 98.0686 230.742 98.8122 230.686 99.675C230.601 100.824 230.459 102.225 230.259 103.877C230.093 105.501 229.892 107.169 229.653 108.882L230.623 108.836C231.04 108.846 231.484 108.907 231.955 109.019C232.429 109.1 232.867 109.225 233.268 109.394C233.7 109.567 234.049 109.779 234.313 110.031C234.611 110.255 234.796 110.499 234.865 110.763C234.932 111.059 234.793 111.318 234.448 111.541C234.136 111.766 233.731 111.95 233.234 112.093C232.772 112.207 232.296 112.303 231.806 112.382C231.315 112.46 230.939 112.519 230.678 112.556C230.417 112.594 230.14 112.63 229.847 112.665C229.589 112.671 229.33 112.693 229.068 112.73C228.921 113.552 228.762 114.323 228.592 115.046C228.453 115.772 228.322 116.434 228.197 117.032C227.982 117.879 227.691 118.685 227.323 119.452C226.959 120.187 226.558 120.806 226.121 121.308C225.713 121.845 225.303 122.238 224.892 122.486C224.512 122.737 224.184 122.8 223.907 122.675C223.723 122.592 223.623 122.308 223.608 121.824C223.59 121.372 223.611 120.844 223.673 120.239C223.738 119.602 223.818 118.967 223.915 118.334C224.047 117.671 224.169 117.105 224.281 116.634L224.894 112.981Z" fill="#6F6F6F"/>
<path fill-rule="evenodd" clip-rule="evenodd" d="M148.019 164.702L162.677 159.717C165.811 152.912 168.685 149.717 171.301 150.132C173.469 149.553 168.39 157.954 172.326 157.842C176.261 157.73 186.746 152.47 188.097 154.152C190.095 156.639 186.866 162.626 183.826 165.352C178.144 170.445 173.946 171.79 163.985 172.763C158.776 173.272 152.92 175.1 146.415 178.247L148.019 164.702Z" fill="#D4A181"/>
<path fill-rule="evenodd" clip-rule="evenodd" d="M99.279 159.742C110.095 164.558 129.653 164.576 157.954 159.796C162.15 174.626 163.485 184.907 161.961 190.638C137.012 198.543 116.494 200.411 100.301 197.918C99.126 207.58 96.3551 216.482 90.974 224.114C79.9113 239.804 35.5916 215.652 19.2008 215.977C14.9614 182.011 36.4508 172.301 40.101 151.689C44.0985 129.118 68.3519 97.5659 71.0188 98.0362L95.3398 102.325C93.6418 119.802 97.0458 139.993 99.279 159.742Z" fill="#1F28CF"/>
</svg>
