<?xml version="1.0" encoding="UTF-8"?>
<svg width="20px" height="20px" viewBox="0 0 20 20" version="1.1" xmlns="http://www.w3.org/2000/svg" xmlns:xlink="http://www.w3.org/1999/xlink">
    <defs>
        <path d="M14.3017626,1.13875359 L14.0715863,1.13875359 C13.7575616,1.13875359 13.5029943,0.883892031 13.5029943,0.56950436 C13.5029943,0.255116689 13.7575616,0.000255125707 14.0715863,0.000255125707 L14.8531665,0.000255125707 C14.8588751,8.54415769e-05 14.8646049,-1.50102153e-13 14.8703546,-1.50102153e-13 L17.4339563,-1.50102153e-13 C18.5809133,-1.50102153e-13 19.5098747,0.930578344 19.5098747,2.07831779 C19.5098747,2.65730774 19.2734716,3.18103431 18.8919363,3.55791199 C19.5023256,3.9987363 19.9188787,4.6750531 19.9188787,5.45618216 C19.9188787,6.74676619 18.7464507,7.81131135 17.4339563,7.81131135 L14.8703546,7.81131135 C14.5563299,7.81131135 14.3017626,7.55644978 14.3017626,7.24206211 L14.3017626,1.13875359 Z M11.7549707,6.70265649 L11.278288,5.61225369 C11.2448878,5.61837139 11.210468,5.6215674 11.1753026,5.6215674 L8.1351667,5.6215674 C8.12585683,5.6215674 8.11659922,5.62134339 8.10739895,5.62090046 L7.63995857,6.69016161 C7.88559586,6.75307961 8.06719049,6.97614816 8.06719049,7.24167942 C8.06719049,7.55606709 7.81262315,7.81092866 7.49859843,7.81092866 L6.79064355,7.81092866 C6.78216096,7.81112 6.77366363,7.8111208 6.76515388,7.81092866 L6.22699087,7.81092866 C5.91296615,7.81092866 5.65839881,7.55606709 5.65839881,7.24167942 C5.65839881,6.92729175 5.91296615,6.67243019 6.22699087,6.67243019 L6.40637963,6.67243019 L9.17384571,0.341903132 C9.37261466,-0.112777124 10.0168523,-0.112777124 10.2156213,0.341903132 L12.9830873,6.67243019 L13.2098747,6.67243019 C13.5238994,6.67243019 13.7784668,6.92729175 13.7784668,7.24167942 C13.7784668,7.55606709 13.5238994,7.81092866 13.2098747,7.81092866 L12.6243131,7.81092866 C12.6158033,7.8111208 12.607306,7.81112 12.5988272,7.81092866 L11.9382671,7.81092866 C11.6242424,7.81092866 11.3696751,7.55606709 11.3696751,7.24167942 C11.3696751,6.99149861 11.5308805,6.77901286 11.7549707,6.70265649 Z M8.60481569,4.48306893 L10.7846513,4.48306893 L9.69473349,1.9899023 L8.60481569,4.48306893 Z M2.739244,4.84210376 L3.92988354,3.65008809 C4.15193255,3.42778243 4.51194513,3.42778243 4.73399414,3.65008809 C4.95604315,3.87239374 4.95604315,4.23282242 4.73399414,4.45512807 L3.5433546,5.64714375 L4.73399414,6.83915943 C4.95604315,7.06146508 4.95604315,7.42189376 4.73399414,7.64419942 C4.51194513,7.86650507 4.15193255,7.86650507 3.92988354,7.64419942 L2.739244,6.45218374 L1.54860446,7.64419942 C1.32655545,7.86650507 0.966542872,7.86650507 0.744493861,7.64419942 C0.522444851,7.42189376 0.522444851,7.06146508 0.744493861,6.83915943 L1.9351334,5.64714375 L0.744493861,4.45512807 C0.522444851,4.23282242 0.522444851,3.87239374 0.744493861,3.65008809 C0.966542872,3.42778243 1.32655545,3.42778243 1.54860446,3.65008809 L2.739244,4.84210376 Z M0.568592058,11 C0.254567335,11 8.72191208e-13,10.7451384 8.72191208e-13,10.4307508 C8.72191208e-13,10.1163631 0.254567335,9.86150153 0.568592058,9.86150153 L20.4314079,9.86150153 C20.7454327,9.86150153 21,10.1163631 21,10.4307508 C21,10.7451384 20.7454327,11 20.4314079,11 L0.568592058,11 Z M17.4339563,6.67281288 C18.1418406,6.67281288 18.7816946,6.09183604 18.7816946,5.45618216 C18.7816946,4.76205033 18.0316938,4.15663559 17.2364621,4.15663559 L15.4389467,4.15663559 L15.4389467,6.67281288 L17.4339563,6.67281288 Z M17.4339563,3.01813712 C17.9527152,3.01813712 18.3726906,2.59743068 18.3726906,2.07831779 C18.3726906,1.55920491 17.9527152,1.13849847 17.4339563,1.13849847 L15.4389467,1.13849847 L15.4389467,3.01813712 L17.4339563,3.01813712 Z" id="path-1"></path>
    </defs>
    <g id="Icon-/-Initial-Alt" stroke="none" stroke-width="1" fill="none" fill-rule="evenodd">
        <g id="Color-/-Brand-Primary" transform="translate(0.000000, 5.000000)">
            <mask id="mask-2" fill="white">
                <use xlink:href="#path-1"></use>
            </mask>
            <use id="Mask" fill="currentColor" fill-rule="nonzero" xlink:href="#path-1"></use>
            <g id="Color-/-Default-Text" mask="url(#mask-2)" fill="none">
                <g transform="translate(0.000000, -2.000000)" id="Rectangle">
                    <rect x="0" y="0" width="22" height="15"></rect>
                </g>
            </g>
        </g>
    </g>
</svg>
