<?xml version="1.0" encoding="UTF-8"?>
<svg width="20px" height="20px" viewBox="0 0 20 20" version="1.1" xmlns="http://www.w3.org/2000/svg" xmlns:xlink="http://www.w3.org/1999/xlink">
    <defs>
        <path d="M13.9843396,13.8344719 L12.9343396,11.1344719 L5.0656604,11.1344719 L4.01566039,13.8344719 L4.5,13.8344719 C4.99705628,13.8344719 5.4,14.2374157 5.4,14.7344719 C5.4,15.2315281 4.99705628,15.6344719 4.5,15.6344719 L2.72057531,15.6344719 C2.70674554,15.6347936 2.69288374,15.6347951 2.67899723,15.6344719 L1.8,15.6344719 C1.30294373,15.6344719 0.9,15.2315281 0.9,14.7344719 C0.9,14.2374157 1.30294373,13.8344719 1.8,13.8344719 L2.0843396,13.8344719 L6.48358739,2.52212048 C7.02405595,1.13234417 8.58882861,0.443844203 9.97860492,0.98431277 C10.6841156,1.25867807 11.2420473,1.81660971 11.5164126,2.52212048 L15.9156604,13.8344719 L16.2,13.8344719 C16.6970562,13.8344719 17.1,14.2374157 17.1,14.7344719 C17.1,15.2315281 16.6970562,15.6344719 16.2,15.6344719 L15.3210028,15.6344719 C15.3071163,15.6347951 15.2932545,15.6347936 15.2794277,15.6344719 L13.5,15.6344719 C13.0029438,15.6344719 12.6,15.2315281 12.6,14.7344719 C12.6,14.2374157 13.0029438,13.8344719 13.5,13.8344719 L13.9843396,13.8344719 Z M5.7656604,9.33447192 L12.2343396,9.33447192 L9.83880423,3.17452374 C9.74734911,2.93935349 9.56137185,2.75337628 9.32620167,2.66192118 C8.86294287,2.48176499 8.34135201,2.71126498 8.16119577,3.17452374 L5.7656604,9.33447192 Z M17.1,17.4344719 C17.5970562,17.4344719 18,17.8374157 18,18.3344719 C18,18.8315281 17.5970562,19.2344719 17.1,19.2344719 L0.9,19.2344719 C0.402943725,19.2344719 0,18.8315281 0,18.3344719 C0,17.8374157 0.402943725,17.4344719 0.9,17.4344719 L17.1,17.4344719 Z" id="path-1"></path>
    </defs>
    <g id="Icon-/-Initial" stroke="none" stroke-width="1" fill="none" fill-rule="evenodd">
        <g id="Color-/-Brand-Primary" transform="translate(1.000000, 0.000000)">
            <mask id="mask-2" fill="white">
                <use xlink:href="#path-1"></use>
            </mask>
            <use id="Mask" fill="none" fill-rule="nonzero" xlink:href="#path-1"></use>
            <g id="Color-/-Default-Text" mask="url(#mask-2)" fill="currentColor">
                <g transform="translate(-1.000000, 0.000000)" id="Rectangle">
                    <rect x="0" y="0" width="20" height="20"></rect>
                </g>
            </g>
        </g>
    </g>
</svg>
