<svg width="19" height="16" viewBox="0 0 19 16" fill="currentColor" xmlns="http://www.w3.org/2000/svg">
<path fill-rule="evenodd" clip-rule="evenodd" d="M3.45455 0H15.5455C17.4533 0 19 1.54665 19 3.45455V12.0909C19 13.9988 17.4533 15.5455 15.5455 15.5455H3.45455C1.54665 15.5455 0 13.9988 0 12.0909V3.45455C0 1.54665 1.54665 0 3.45455 0ZM3.45455 1.72727C2.5006 1.72727 1.72727 2.5006 1.72727 3.45455V12.0909C1.72727 13.0449 2.5006 13.8182 3.45455 13.8182H15.5455C16.4994 13.8182 17.2727 13.0449 17.2727 12.0909V3.45455C17.2727 2.5006 16.4994 1.72727 15.5455 1.72727H3.45455ZM13.8182 11.2273C13.8182 10.7503 13.4315 10.3636 12.9545 10.3636H6.04545C5.56848 10.3636 5.18182 10.7503 5.18182 11.2273C5.18182 11.7042 5.56848 12.0909 6.04545 12.0909H12.9545C13.4315 12.0909 13.8182 11.7042 13.8182 11.2273ZM4.31818 5.18182C3.84121 5.18182 3.45455 4.79516 3.45455 4.31818C3.45455 3.84121 3.84121 3.45455 4.31818 3.45455C4.79516 3.45455 5.18182 3.84121 5.18182 4.31818C5.18182 4.79516 4.79516 5.18182 4.31818 5.18182ZM3.45455 7.77273C3.45455 8.2497 3.84121 8.63636 4.31818 8.63636C4.79516 8.63636 5.18182 8.2497 5.18182 7.77273C5.18182 7.29575 4.79516 6.90909 4.31818 6.90909C3.84121 6.90909 3.45455 7.29575 3.45455 7.77273ZM7.77273 5.18182C7.29575 5.18182 6.90909 4.79516 6.90909 4.31818C6.90909 3.84121 7.29575 3.45455 7.77273 3.45455C8.2497 3.45455 8.63636 3.84121 8.63636 4.31818C8.63636 4.79516 8.2497 5.18182 7.77273 5.18182ZM6.90909 7.77273C6.90909 8.2497 7.29575 8.63636 7.77273 8.63636C8.2497 8.63636 8.63636 8.2497 8.63636 7.77273C8.63636 7.29575 8.2497 6.90909 7.77273 6.90909C7.29575 6.90909 6.90909 7.29575 6.90909 7.77273ZM11.2273 5.18182C10.7503 5.18182 10.3636 4.79516 10.3636 4.31818C10.3636 3.84121 10.7503 3.45455 11.2273 3.45455C11.7042 3.45455 12.0909 3.84121 12.0909 4.31818C12.0909 4.79516 11.7042 5.18182 11.2273 5.18182ZM10.3636 7.77273C10.3636 8.2497 10.7503 8.63636 11.2273 8.63636C11.7042 8.63636 12.0909 8.2497 12.0909 7.77273C12.0909 7.29575 11.7042 6.90909 11.2273 6.90909C10.7503 6.90909 10.3636 7.29575 10.3636 7.77273ZM14.6818 5.18182C14.2048 5.18182 13.8182 4.79516 13.8182 4.31818C13.8182 3.84121 14.2048 3.45455 14.6818 3.45455C15.1588 3.45455 15.5455 3.84121 15.5455 4.31818C15.5455 4.79516 15.1588 5.18182 14.6818 5.18182ZM13.8182 7.77273C13.8182 8.2497 14.2048 8.63636 14.6818 8.63636C15.1588 8.63636 15.5455 8.2497 15.5455 7.77273C15.5455 7.29575 15.1588 6.90909 14.6818 6.90909C14.2048 6.90909 13.8182 7.29575 13.8182 7.77273Z" />
</svg>
