<?xml version="1.0" encoding="UTF-8"?>
<svg width="20px" height="20px" viewBox="0 0 20 20" version="1.1" xmlns="http://www.w3.org/2000/svg" xmlns:xlink="http://www.w3.org/1999/xlink">
    <defs>
        <path d="M14.0208153,6.24264069 L6.24264069,14.0208153 C7.02368927,14.8018639 7.02368927,16.0681938 6.24264069,16.8492424 L4.82842712,18.263456 C4.04737854,19.0445046 2.78104858,19.0445046 2,18.263456 L0.585786438,16.8492424 C-0.195262146,16.0681938 -0.195262146,14.8018639 0.585786438,14.0208153 L2,12.6066017 C2.78104858,11.8255531 4.04737854,11.8255531 4.82842712,12.6066017 L12.6066017,4.82842712 C11.8255531,4.04737854 11.8255531,2.78104858 12.6066017,2 L14.0208153,0.585786438 C14.8018639,-0.195262146 16.0681938,-0.195262146 16.8492424,0.585786438 L18.263456,2 C19.0445046,2.78104858 19.0445046,4.04737854 18.263456,4.82842712 L16.8492424,6.24264069 C16.0681938,7.02368927 14.8018639,7.02368927 14.0208153,6.24264069 Z M15.4350288,2 L14.0208153,3.41421356 L15.4350288,4.82842712 L16.8492424,3.41421356 L15.4350288,2 Z M3.41421356,14.0208153 L2,15.4350288 L3.41421356,16.8492424 L4.82842712,15.4350288 L3.41421356,14.0208153 Z" id="path-1"></path>
    </defs>
    <g id="Icon-/-Line" stroke="none" stroke-width="1" fill="none" fill-rule="evenodd">
        <g id="Color-/-Brand-Primary" transform="translate(0.500000, 0.500000)">
            <mask id="mask-2" fill="white">
                <use xlink:href="#path-1"></use>
            </mask>
            <use id="Mask" fill="none" fill-rule="nonzero" xlink:href="#path-1"></use>
            <g id="Color-/-Default-Text" mask="url(#mask-2)" fill="currentColor">
                <rect id="Rectangle" x="0" y="0" width="20" height="20"></rect>
            </g>
        </g>
    </g>
</svg>
