<svg width="2220" height="2007" viewBox="0 0 2220 2007" fill="none" xmlns="http://www.w3.org/2000/svg">
<g id="Scene/Home">
<g id="Clock">
<path id="Clock Frame" fill-rule="evenodd" clip-rule="evenodd" d="M1674 540C1761.81 540 1833 468.813 1833 381C1833 293.187 1761.81 222 1674 222C1586.19 222 1515 293.187 1515 381C1515 468.813 1586.19 540 1674 540Z" fill="#F2F2F2"/>
<path id="Time" fill-rule="evenodd" clip-rule="evenodd" d="M1674 264C1678.97 264 1683 259.971 1683 255C1683 250.029 1678.97 246 1674 246C1669.03 246 1665 250.029 1665 255C1665 259.971 1669.03 264 1674 264Z" fill="black" fill-opacity="0.1"/>
<path id="Time_2" fill-rule="evenodd" clip-rule="evenodd" d="M1548 390C1552.97 390 1557 385.971 1557 381C1557 376.029 1552.97 372 1548 372C1543.03 372 1539 376.029 1539 381C1539 385.971 1543.03 390 1548 390Z" fill="black" fill-opacity="0.1"/>
<path id="Time_3" fill-rule="evenodd" clip-rule="evenodd" d="M1800 390C1804.97 390 1809 385.971 1809 381C1809 376.029 1804.97 372 1800 372C1795.03 372 1791 376.029 1791 381C1791 385.971 1795.03 390 1800 390Z" fill="black" fill-opacity="0.1"/>
<path id="Time_4" fill-rule="evenodd" clip-rule="evenodd" d="M1674 516C1678.97 516 1683 511.971 1683 507C1683 502.029 1678.97 498 1674 498C1669.03 498 1665 502.029 1665 507C1665 511.971 1669.03 516 1674 516Z" fill="black" fill-opacity="0.1"/>
<path id="Hand" fill-rule="evenodd" clip-rule="evenodd" d="M1674 273L1680 378H1668L1674 273Z" fill="#AFB9C5"/>
<path id="Hand_2" fill-rule="evenodd" clip-rule="evenodd" d="M1727.1 434.095L1671.94 387.426L1680.43 378.941L1727.1 434.095Z" fill="#AFB9C5"/>
<path id="Time_5" fill-rule="evenodd" clip-rule="evenodd" d="M1674 393C1680.63 393 1686 387.627 1686 381C1686 374.373 1680.63 369 1674 369C1667.37 369 1662 374.373 1662 381C1662 387.627 1667.37 393 1674 393Z" fill="#C5CFD6"/>
</g>
<g id="Background Shape 2" opacity="0.345889">
<path id="Background Shape" fill-rule="evenodd" clip-rule="evenodd" d="M1505.38 1216.15C1484.7 985.008 374.893 538.872 168.862 757.809C-37.1691 976.746 160.904 1387.63 592.669 1492.85C1024.43 1598.07 1526.07 1447.3 1505.38 1216.15Z" fill="#F2F2F2"/>
<path id="Background Shape_2" fill-rule="evenodd" clip-rule="evenodd" d="M819.433 1366.34C837.961 1169.98 1832.08 790.965 2016.63 976.961C2201.18 1162.96 2154.47 1554.18 1767.71 1643.56C1380.96 1732.95 800.905 1562.71 819.433 1366.34Z" fill="#DDE3E9"/>
</g>
<g id="Hanging Lamp">
<g id="Light">
<path id="Hanging Lamp Light" fill-rule="evenodd" clip-rule="evenodd" d="M223.5 596.02C293.916 596.02 351 565.799 351 528.52C351 491.241 293.916 461.02 223.5 461.02C153.084 461.02 96 491.241 96 528.52C96 565.799 153.084 596.02 223.5 596.02Z" fill="#F2F2F2"/>
<path id="Hanging Lamp_2" fill-rule="evenodd" clip-rule="evenodd" d="M372 575.02C372 492.177 305.514 425.02 223.5 425.02C141.486 425.02 75 492.177 75 575.02" fill="#DDE3E9"/>
</g>
<rect id="Wire" x="216" y="-33" width="15" height="480" fill="#DDE3E9"/>
</g>
<g id="Hanging Lamp_3" opacity="0.7">
<g id="Light_2">
<path id="Hanging Lamp Light_2" fill-rule="evenodd" clip-rule="evenodd" d="M456 444C508.635 444 551.303 419.612 551.303 389.527C551.303 359.442 508.635 335.053 456 335.053C403.366 335.053 360.697 359.442 360.697 389.527C360.697 419.612 403.366 444 456 444Z" fill="#F2F2F2"/>
<path id="Hanging Lamp_4" fill-rule="evenodd" clip-rule="evenodd" d="M567 427.053C567 360.197 517.304 306 456 306C394.696 306 345 360.197 345 427.053" fill="#DDE3E9"/>
</g>
<rect id="Wire_2" x="450" y="-33" width="15" height="408" fill="#DDE3E9"/>
</g>
<g id="Lamp">
<path id="Body" d="M1752 669.707L1807.7 613.981C1817.08 604.604 1832.28 604.604 1841.65 613.981L1989.95 762.339C1998.95 771.341 2004 783.547 2004 796.273V1779" stroke="#CBCBCB" stroke-width="8"/>
<rect id="Lamp Base" x="1914" y="1776" width="177" height="21" rx="3" fill="#AFB9C5"/>
<g id="Lamp Top">
<path id="Lamp_2" d="M1645.5 637.004C1684.16 598.342 1746.84 598.342 1785.5 637.004C1824.17 675.665 1824.17 738.349 1785.5 777.011L1726.11 836.408L1586.1 696.401L1645.5 637.004Z" fill="#C5CFD6"/>
<path id="Lamp_3" fill-rule="evenodd" clip-rule="evenodd" d="M1644.68 778.581C1683.35 817.243 1720.86 842.411 1728.48 834.796C1736.09 827.18 1710.92 789.665 1672.26 751.004C1633.6 712.342 1596.08 687.173 1588.47 694.789C1580.85 702.404 1606.02 739.919 1644.68 778.581Z" fill="#F2F2F2"/>
</g>
</g>
<g id="Big Leaf Plant">
<g id="Big Ass Leaf">
<path id="leaf" fill-rule="evenodd" clip-rule="evenodd" d="M189.774 1083.52C198.368 1082.47 207.54 1082.84 215.532 1086.23C232.526 1093.45 237.356 1113.52 237.123 1129.84C236.872 1147.4 233.142 1166.59 246.495 1180.74C252.634 1187.25 260.269 1192.22 266.296 1198.85C272.737 1205.93 277.79 1214.03 281.532 1222.73C288.402 1238.71 291.773 1257.5 285.491 1274.26C279.96 1289.02 266.043 1302.34 269.05 1319.12C272.187 1336.63 289.837 1350.01 300.871 1363.05C313.359 1377.81 324.858 1396.67 326.747 1416.02C328.558 1434.56 320.485 1453.32 308.096 1467.34C283.343 1495.35 246.135 1509.08 208.619 1509C192.69 1508.96 174.656 1508.24 160.91 1499.68C156.661 1497.04 154.42 1494.07 151.894 1489.94C149.63 1486.24 146.639 1483.84 143.176 1481.22C135.57 1475.47 130.076 1467.72 126.57 1459.04C112.957 1425.34 123.838 1383.65 142.894 1353.73C147.409 1346.64 151.106 1339.82 148.912 1331.37C146.623 1322.54 140.997 1314.59 136.021 1307.01C131.103 1299.51 125.49 1292.36 121.646 1284.26C117.621 1275.77 116.487 1266.88 117.199 1257.59C118.535 1240.14 126.068 1224.04 136.733 1210.01C147.005 1196.49 159.066 1183.56 159.093 1165.84C159.123 1147.07 146.573 1130.37 151.92 1111.29C154.133 1103.38 158.58 1095.28 165.746 1090.54C172.618 1085.99 181.692 1084.51 189.774 1083.52Z" fill="#DDE3E9"/>
<path id="middle thing" fill-rule="evenodd" clip-rule="evenodd" d="M184.158 1113.53C184.32 1111.01 187.31 1109.5 189.665 1110.15C192.763 1111.02 192.704 1113.92 192.622 1116.5C192.371 1124.42 193.519 1132.13 195.425 1139.82C199.387 1155.82 206.708 1170.56 212.509 1185.92C218.304 1201.28 221.025 1217.13 217.625 1233.37C214.42 1248.69 209.384 1263.61 206.104 1278.95C203.213 1292.46 200.137 1306.72 204.54 1320.2C208.776 1333.18 218.143 1343.75 224.887 1355.48C238.85 1379.75 245.044 1406.69 245.872 1434.41C246.256 1447.28 245.911 1460.27 242.925 1472.89C241.206 1480.16 238.897 1489.98 232.668 1495C229.796 1497.31 224.883 1498.11 222.466 1494.69C220.196 1491.47 222.187 1486.5 222.908 1483.07C226.028 1468.24 226.656 1453.08 225.909 1438.03C225.186 1423.44 223.462 1408.88 218.872 1394.95C214.611 1382.02 208.138 1370.41 200.519 1359.1C192.756 1347.57 184.686 1336.02 181.478 1322.37C178.219 1308.5 180.867 1294.39 184.407 1280.78C188.151 1266.39 193.055 1252.42 198.125 1238.42C203.066 1224.77 204.817 1211.87 202.09 1197.59C196.702 1169.38 182.279 1142.9 184.158 1113.53Z" fill="#C5CFD6"/>
</g>
<g id="Big Ass Leaf_2">
<path id="leaf_2" fill-rule="evenodd" clip-rule="evenodd" d="M416.677 1117.75C427.312 1120.98 437.874 1126.19 445.454 1134.35C461.574 1151.73 456.628 1177.98 447.729 1197.16C438.151 1217.8 423.637 1238.55 431.819 1262.23C435.58 1273.12 441.904 1282.98 445.471 1293.95C449.282 1305.67 450.928 1317.88 450.718 1330.12C450.33 1352.59 444.353 1376.56 428.124 1393.12C413.836 1407.7 390.473 1416.21 385.13 1437.62C379.555 1459.95 393.183 1484.96 399.233 1506.12C406.081 1530.07 409.599 1558.36 401.586 1582.23C393.908 1605.1 374.525 1623.08 352.585 1633.22C308.746 1653.47 257.846 1650.35 213.887 1630.73C195.224 1622.4 174.452 1612.17 162.854 1594.9C159.269 1589.56 158.209 1584.88 157.428 1578.69C156.728 1573.13 154.491 1568.73 151.814 1563.83C145.932 1553.08 143.585 1541.05 144.059 1528.97C145.903 1482.03 180.701 1438.39 218.869 1412.92C227.912 1406.88 235.854 1400.73 237.748 1389.6C239.726 1377.98 237.332 1365.64 235.504 1354.08C233.697 1342.66 230.891 1331.29 230.666 1319.71C230.432 1307.57 233.8 1296.47 239.545 1285.86C250.336 1265.91 267.682 1250.79 287.609 1239.74C306.802 1229.1 327.785 1220.08 337.178 1199.15C347.135 1176.96 341.242 1150.68 357.601 1130.89C364.375 1122.7 373.876 1115.42 384.785 1113.55C395.247 1111.75 406.675 1114.71 416.677 1117.75Z" fill="#DDE3E9"/>
<path id="middle thing_2" fill-rule="evenodd" clip-rule="evenodd" d="M394.954 1154.43C396.463 1151.53 400.751 1151.31 403.16 1153.32C406.33 1155.97 404.743 1159.37 403.297 1162.38C398.851 1171.64 396.157 1181.37 394.356 1191.48C390.611 1212.5 391.454 1233.79 390.189 1255.02C388.925 1276.24 383.804 1296.44 371.321 1313.9C359.551 1330.36 345.85 1345.39 333.982 1361.83C323.522 1376.32 312.46 1391.59 310.547 1409.86C308.704 1427.45 314.121 1444.88 315.865 1462.3C319.476 1498.37 312.613 1533.51 299.065 1566.77C292.773 1582.22 285.566 1597.42 275.463 1610.8C269.647 1618.51 261.802 1628.93 251.89 1631.61C247.32 1632.84 241.156 1631.22 240.125 1625.89C239.154 1620.89 244.088 1616.05 246.725 1612.37C258.141 1596.44 266.813 1578.82 273.826 1560.59C280.62 1542.94 286.231 1524.79 288.159 1505.89C289.947 1488.35 288.46 1471.2 285.474 1453.82C282.433 1436.1 279.045 1418.19 282.446 1400.34C285.899 1382.21 296.386 1366.88 307.65 1352.63C319.564 1337.55 332.619 1323.57 345.879 1309.65C358.801 1296.08 367.609 1281.71 371.897 1263.38C380.37 1227.15 377.372 1188.23 394.954 1154.43Z" fill="#C5CFD6"/>
</g>
<g id="Big Ass Leaf_3">
<path id="leaf_3" fill-rule="evenodd" clip-rule="evenodd" d="M87.9179 1251C105.601 1251 121.147 1260.37 131.859 1273.67C144.399 1289.24 146.932 1308.26 152.024 1326.82C154.557 1336.05 158.915 1345.22 166.552 1351.49C173.498 1357.2 182.316 1358.34 190.63 1361.13C207.247 1366.7 220.664 1380.12 225.963 1396.5C232.427 1416.47 225.58 1436.62 226.759 1456.86C227.841 1475.46 246.173 1487.06 260.922 1495.97C275.464 1504.76 288.566 1512.98 292.946 1530.1C297.591 1548.26 299.149 1568.53 292.716 1586.47C282.005 1616.34 250.657 1629.49 220.368 1631.53C192.88 1633.38 158.316 1630.47 137.672 1610.52C125.319 1598.58 120.846 1581.88 121.401 1565.27C121.745 1554.93 123.792 1544.7 126.438 1534.71C128.313 1527.64 130.847 1520.59 131.569 1513.28C133.488 1493.83 115.508 1490.09 100.203 1484.75C80.7549 1477.96 67.1396 1465.14 57.672 1447.28C48.855 1430.64 45.1556 1411.97 50.4411 1393.66C53.1406 1384.31 58.0368 1375.83 64.677 1368.61C67.6001 1365.44 71.7199 1362.79 74.3582 1359.45C76.8208 1356.34 76.2847 1352.3 75.436 1348.65C71.5119 1331.79 59.2859 1317.83 54.9135 1301.01C50.9661 1285.82 53.2996 1266.91 67.1863 1257.11C73.1859 1252.88 80.5847 1251.05 87.9179 1251Z" fill="#C5CFD6"/>
<path id="middle thing_3" fill-rule="evenodd" clip-rule="evenodd" d="M112.013 1294.92C130.755 1314.89 135.849 1341.97 137.344 1368.23C138.182 1382.95 137.31 1398.48 141.635 1412.76C145.336 1424.98 154.012 1434.32 162.955 1443.15C180.956 1460.93 201.032 1479 206.298 1504.72C209.387 1519.82 207.302 1535.41 211.571 1550.34C215.452 1563.91 222.287 1577.25 230.6 1588.71C237.293 1597.93 246.013 1605 253.329 1613.6C255.561 1616.23 258.759 1620.09 257.837 1623.8C256.759 1628.14 251.229 1629.52 247.306 1628.83C238.158 1627.24 230.457 1618.51 224.476 1612.16C215.729 1602.87 208.297 1592.88 202.256 1581.68C195.55 1569.24 190.15 1556.04 187.843 1542.08C185.448 1527.6 186.64 1512.5 181.173 1498.61C171.973 1475.22 149.658 1461.42 133.524 1443.19C113.423 1420.48 116.421 1392.21 118.48 1364.28C119.611 1348.92 120.735 1331.59 112.977 1317.57C110.016 1312.22 103.413 1307.23 102.14 1301.15C100.974 1295.57 107.339 1289.94 112.013 1294.92Z" fill="#AFB9C5"/>
</g>
<path id="Base" fill-rule="evenodd" clip-rule="evenodd" d="M132.001 1623C132.001 1737.18 150.634 1797 249 1797C347.367 1797 365.999 1737.18 365.999 1623H132.001Z" fill="#89C5CC"/>
</g>
<g id="Table">
<g id="Lamp_4">
<rect id="Lamp Base_2" x="537" y="1458" width="114" height="27" rx="2" fill="#AFB9C5"/>
<path id="Lamp Body" fill-rule="evenodd" clip-rule="evenodd" d="M588.651 1239H594H597H602.349C603.904 1285.26 611.121 1329.26 624 1371H643.5C669.181 1371 690 1391.82 690 1417.5C690 1443.18 669.181 1464 643.5 1464H544.5C518.819 1464 498 1443.18 498 1417.5C498 1391.82 518.819 1371 544.5 1371H567C586.319 1308.38 588.651 1239 588.651 1239Z" fill="#DDE3E9"/>
<path id="Shade" fill-rule="evenodd" clip-rule="evenodd" d="M487.867 1031.04C487.867 1031.04 539.433 1026 591 1026C642.567 1026 694.133 1031.04 694.133 1031.04L708 1269.4C708 1269.4 649.5 1275 591 1275C532.5 1275 474 1269.4 474 1269.4L487.867 1031.04Z" fill="#C5CFD6"/>
</g>
<path id="Table_2" fill-rule="evenodd" clip-rule="evenodd" d="M405 1797V1551V1485H468H717H780V1551V1797H717V1551H468V1797H405Z" fill="#F2F2F2"/>
</g>
<g id="Plant">
<g id="Succulents">
<path id="Thi Succs!" fill-rule="evenodd" clip-rule="evenodd" d="M1660.14 951.625C1686.64 1014.59 1731.69 1058.34 1755.55 1123.81C1769.69 1162.64 1775.59 1204.86 1775.95 1248.1C1776.14 1271.58 1775.73 1295.08 1775.62 1318.57C1775.52 1341.47 1774.89 1364.22 1772.95 1386.98C1771 1409.86 1768.81 1432.46 1767.85 1455.48C1767.09 1473.41 1766.75 1494.27 1760.67 1510.63C1755.84 1523.64 1743.55 1525.55 1740.29 1509.77C1738.48 1501 1738.71 1491.2 1738.91 1482.19C1739.16 1470.62 1739.84 1459.08 1740.18 1447.51C1741.56 1401.11 1739.77 1354.7 1740.7 1308.27C1741.62 1262.92 1747.45 1217.61 1741 1172.56C1735.67 1135.36 1722.14 1103.41 1706.58 1072.78C1691.62 1043.31 1675.34 1014.56 1665.22 981.043C1662.32 971.417 1660.08 961.442 1659 951.09C1659.47 950.872 1659.85 951.049 1660.14 951.625Z" fill="#C1DEE2"/>
<path id="Thi Succs!_2" fill-rule="evenodd" clip-rule="evenodd" d="M1652.92 1075.85C1658.17 1079.64 1661.1 1085.18 1664.65 1090.65C1669.06 1097.45 1674.24 1103.59 1678.65 1110.39C1687.85 1124.58 1695.92 1139.64 1704.3 1154.4C1720.22 1182.41 1732.3 1212.27 1738.28 1244.68C1744.48 1278.27 1746.16 1312.95 1748.76 1347.04C1751.52 1383.17 1754.3 1419.56 1754.66 1455.84C1754.83 1472.09 1755.7 1489.34 1753.75 1505.47C1752.54 1515.52 1748 1524.08 1737.78 1524C1716.07 1523.83 1705.88 1499.78 1701.62 1480.06C1695.36 1451.02 1694.11 1420.18 1695.1 1390.48C1696.3 1354.67 1702.51 1319.4 1705.2 1283.73C1708.05 1245.97 1706.44 1208.88 1693.46 1173.33C1686.9 1155.36 1679.29 1137.82 1672.45 1119.98C1669.54 1112.38 1667.16 1104.57 1663.23 1097.49C1658.85 1089.62 1653.42 1082.48 1650 1074C1650.97 1074.62 1651.95 1075.23 1652.92 1075.85Z" fill="#89C5CC"/>
<path id="Thi Succs!_3" fill-rule="evenodd" clip-rule="evenodd" d="M1903 1000.55C1903.67 1000.04 1904.33 999.519 1905 999C1903.08 1007.08 1899.62 1013.64 1896.97 1021.02C1894.59 1027.66 1893.39 1035.17 1891.78 1042.43C1888.02 1059.47 1883.67 1076.13 1880.12 1093.32C1873.08 1127.33 1874.41 1163.97 1879.03 1201.7C1883.38 1237.35 1890.28 1272.94 1893.56 1308.57C1896.28 1338.13 1897.46 1368.61 1894.86 1396.8C1893.09 1415.95 1887.31 1438.82 1871.54 1436.89C1864.12 1435.98 1860.25 1427.04 1858.69 1416.96C1856.19 1400.76 1855.66 1383.74 1854.69 1367.63C1852.51 1331.69 1852.07 1295.85 1851.64 1260.28C1851.24 1226.71 1850.11 1192.48 1852.36 1159.76C1854.52 1128.19 1861.29 1099.74 1870.96 1073.49C1876.05 1059.66 1880.91 1045.51 1886.63 1032.33C1889.38 1026 1892.73 1020.42 1895.48 1014.1C1897.69 1009.02 1899.45 1003.8 1903 1000.55Z" fill="#C1DEE2"/>
<path id="Thi Succs!_4" fill-rule="evenodd" clip-rule="evenodd" d="M1659.63 1179.91C1662.5 1175.09 1668.82 1190.98 1669.78 1192.98C1669.37 1191.98 1668.96 1190.99 1668.55 1190C1674.25 1199.47 1679.46 1209.34 1682.7 1220.2C1685.91 1230.96 1688.66 1241.93 1691.67 1252.76C1697.32 1273.08 1704.6 1292.83 1709.72 1313.33C1714.71 1333.31 1715.96 1352.96 1714.76 1373.63C1713.5 1395.11 1712.73 1416.92 1714.2 1438.39C1714.9 1448.64 1718.23 1458.19 1720.51 1468.06C1722.8 1477.94 1724.6 1487.96 1727.3 1497.72C1727.92 1496.45 1728 1500.7 1728 1501.02C1727.98 1503.46 1727.64 1505.5 1726.86 1507.81C1724.84 1513.76 1721.07 1518.81 1715.33 1520.45C1704.96 1523.41 1695.34 1513.98 1691.99 1504.02C1687.2 1489.73 1684.55 1473.93 1682.27 1458.91C1680.17 1445.14 1679.67 1431.28 1680.3 1417.32C1681.52 1389.78 1686.51 1362.61 1687.85 1335.08C1689.32 1305.11 1683.38 1276.95 1678.41 1247.77C1676.02 1233.72 1673.73 1219.79 1669.07 1206.4C1667.18 1200.98 1664.72 1196.19 1662.14 1191.18C1660.68 1188.34 1657.71 1183.25 1659.63 1179.91Z" fill="#C1DEE2"/>
<path id="Thi Succs!_5" fill-rule="evenodd" clip-rule="evenodd" d="M1743.76 1133.09C1742.57 1167.43 1740.52 1201.5 1735.94 1235.47C1731.27 1270.14 1725.9 1304.69 1721.41 1339.39C1717.03 1373.17 1712.44 1407.51 1713.06 1441.75C1713.51 1466.98 1709.32 1509.66 1737.34 1522.11C1765.72 1534.72 1771.8 1480.87 1773.67 1463.1C1777.24 1429 1776.08 1394.54 1774.35 1360.26C1772.57 1325.07 1769.6 1290.06 1765.92 1255C1761.83 1216.06 1758.62 1176.94 1756.05 1137.89C1754.77 1118.57 1754.46 1099.29 1754.81 1079.96C1755.14 1061.73 1754.45 1043.31 1747.97 1026C1747.63 1026.25 1747.29 1026.49 1746.95 1026.74" fill="#69A1AC"/>
<path id="Thi Succs!_6" fill-rule="evenodd" clip-rule="evenodd" d="M1890.25 1241.87C1885.15 1249.3 1880 1256.66 1875.18 1264.54C1866.56 1278.63 1858.76 1294.29 1856.41 1314.44C1851.51 1356.6 1855.44 1402.14 1856.39 1445.59C1856.59 1454.47 1855.47 1463.08 1858.97 1471.53C1862.14 1479.19 1868.07 1485.03 1873.73 1485C1885.83 1484.93 1883.99 1455.29 1884.01 1442.24C1884.04 1419.37 1881.48 1396.27 1881.7 1373.42C1881.92 1350.78 1883.3 1328.08 1886.58 1306.58C1889.9 1284.82 1894.77 1263.93 1901.19 1244.43C1902.08 1241.72 1908.47 1220.81 1902.43 1224.42" fill="#89C5CC"/>
<path id="Thi Succs!_7" fill-rule="evenodd" clip-rule="evenodd" d="M1836.79 1017C1828.83 1017 1828.88 1056.68 1828.64 1061.77C1827.77 1080.17 1827.98 1098.56 1827.43 1116.96C1826.23 1157.1 1824.76 1197.6 1818.73 1237.28C1815.48 1258.64 1811.72 1279.91 1807.67 1301.11C1803.61 1322.37 1798.16 1343.6 1795.49 1365.13C1792.93 1385.83 1794.37 1406.93 1794.73 1427.73C1795.08 1448.66 1795.71 1469.62 1798.45 1490.36C1799.13 1495.48 1799.92 1500.58 1800.77 1505.67C1801.48 1509.91 1801.06 1515.17 1802.26 1519.2C1804.18 1525.66 1812.4 1527.77 1817.93 1526.76C1832.91 1524.03 1842.48 1505.22 1847.6 1491.48C1854.13 1473.93 1857.6 1454.9 1861.02 1436.41C1864.89 1415.46 1867.16 1394.2 1868.23 1372.87C1870.4 1329.53 1867.62 1286.14 1864.51 1242.93C1862.78 1218.9 1860.79 1194.98 1857.74 1171.1C1854.7 1147.32 1850.8 1123.65 1848.26 1099.8C1846.41 1082.47 1844.59 1065.12 1843.4 1047.72C1843.11 1043.58 1842.87 1017 1836.79 1017Z" fill="#69A1AC"/>
<path id="Thi Succs!_8" fill-rule="evenodd" clip-rule="evenodd" d="M1826.82 1305.42C1825.53 1263.76 1808.78 1080.78 1804.97 1030.4C1804.02 1017.79 1794.84 965.294 1793.65 951C1790.43 955.04 1790.7 1017.93 1790.74 1032.38C1790.78 1046.67 1789 1060.73 1788.09 1074.95C1787.16 1089.45 1765.72 1276.8 1762.93 1290.74C1757.4 1318.47 1753.69 1346.93 1750.83 1375.28C1748.05 1402.92 1743.72 1432.07 1747.45 1459.85C1748.3 1466.25 1749.66 1472.54 1751.86 1478.42C1754.25 1484.77 1755.88 1490.64 1757.8 1497.28C1760.87 1507.98 1766.44 1517.37 1775 1521.79C1792.55 1530.84 1801.97 1510.34 1806.75 1492.49C1814.38 1463.98 1819.28 1435.01 1821.57 1405.08C1824.11 1371.95 1827.86 1338.77 1826.82 1305.42Z" fill="#89C5CC"/>
</g>
<g id="Planter">
<rect id="Vase" x="1641" y="1428" width="273" height="273" rx="2" fill="white"/>
<rect id="Leg" x="1611" y="1458" width="30" height="339" rx="2" fill="#C5CFD6"/>
<rect id="Leg_2" x="1761" y="1458" width="30" height="339" rx="2" fill="#C5CFD6"/>
<rect id="Leg_3" x="1914" y="1458" width="30" height="339" rx="2" fill="#C5CFD6"/>
</g>
</g>
</g>
</svg>
