<svg width="28" height="27" viewBox="0 0 28 27" fill="none" xmlns="http://www.w3.org/2000/svg">
<path fill-rule="evenodd" clip-rule="evenodd" d="M15.9231 25.2115C15.9231 24.4787 15.329 23.8846 14.5962 23.8846H5.30769C3.84201 23.8846 2.65385 22.6964 2.65385 21.2308V5.30769C2.65385 3.84201 3.84201 2.65385 5.30769 2.65385H21.2308C22.6964 2.65385 23.8846 3.84201 23.8846 5.30769V13.2692C23.8846 14.0021 24.4787 14.5962 25.2115 14.5962C25.9444 14.5962 26.5385 14.0021 26.5385 13.2692V5.30769C26.5385 2.37633 24.1621 0 21.2308 0H5.30769C2.37633 0 0 2.37633 0 5.30769V21.2308C0 24.1621 2.37633 26.5385 5.30769 26.5385H14.5962C15.329 26.5385 15.9231 25.9444 15.9231 25.2115ZM6.63462 8.625C5.90178 8.625 5.30769 8.03092 5.30769 7.29808C5.30769 6.56524 5.90178 5.97115 6.63462 5.97115H19.9038C20.6367 5.97115 21.2308 6.56524 21.2308 7.29808C21.2308 8.03092 20.6367 8.625 19.9038 8.625H6.63462ZM27.8654 21.2308C27.8654 21.9636 27.2713 22.5577 26.5385 22.5577H23.8846V25.2115C23.8846 25.9444 23.2905 26.5385 22.5577 26.5385C21.8249 26.5385 21.2308 25.9444 21.2308 25.2115V22.5577H18.5769C17.8441 22.5577 17.25 21.9636 17.25 21.2308C17.25 20.4979 17.8441 19.9038 18.5769 19.9038H21.2308V17.25C21.2308 16.5172 21.8249 15.9231 22.5577 15.9231C23.2905 15.9231 23.8846 16.5172 23.8846 17.25V19.9038H26.5385C27.2713 19.9038 27.8654 20.4979 27.8654 21.2308ZM5.30769 13.2692C5.30769 14.0021 5.90178 14.5962 6.63462 14.5962H19.9038C20.6367 14.5962 21.2308 14.0021 21.2308 13.2692C21.2308 12.5364 20.6367 11.9423 19.9038 11.9423H6.63462C5.90178 11.9423 5.30769 12.5364 5.30769 13.2692ZM6.63462 20.5673C5.90178 20.5673 5.30769 19.9732 5.30769 19.2404C5.30769 18.5075 5.90178 17.9135 6.63462 17.9135H11.9423C12.6751 17.9135 13.2692 18.5075 13.2692 19.2404C13.2692 19.9732 12.6751 20.5673 11.9423 20.5673H6.63462Z" fill="#80969B"/>
</svg>
