<svg width="18" height="18" viewBox="0 0 18 18" fill="currentColor" xmlns="http://www.w3.org/2000/svg">
<path fill-rule="evenodd" clip-rule="evenodd" d="M9.60958 3.73705L2.13546 11.2112C1.99387 11.3528 1.91433 11.5448 1.91433 11.745L1.91433 14.9482C1.91433 15.3652 2.25235 15.7032 2.66933 15.7032L5.87252 15.7032C6.07276 15.7032 6.2648 15.6237 6.40639 15.4821L13.8805 8.00798L17.0837 4.80478C17.3785 4.50994 17.3785 4.0319 17.0837 3.73705L13.8805 0.533859C13.5857 0.239013 13.1076 0.239014 12.8128 0.53386L9.60958 3.73705ZM10.1434 5.33865L9.60958 4.80478C9.31474 4.50994 9.31474 4.0319 9.60958 3.73705C9.90443 3.44221 10.3825 3.44221 10.6773 3.73705L11.2112 4.27092L13.3466 2.13546L15.4821 4.27092L13.3466 6.40638L13.8805 6.94025C14.1754 7.23509 14.1754 7.71313 13.8805 8.00798C13.5857 8.30282 13.1076 8.30282 12.8128 8.00798L12.2789 7.47411L5.55979 14.1932L3.42433 14.1932V12.0578L10.1434 5.33865Z" />
</svg>
