<svg width="14" height="15" viewBox="0 0 14 15" fill="none" xmlns="http://www.w3.org/2000/svg">
<path fill-rule="evenodd" clip-rule="evenodd" d="M2.8 4.2C2.8 6.5196 4.6804 8.4 7 8.4C9.3196 8.4 11.2 6.5196 11.2 4.2C11.2 1.8804 9.3196 0 7 0C4.6804 0 2.8 1.8804 2.8 4.2ZM9.8 4.2C9.8 5.7464 8.5464 7 7 7C5.4536 7 4.2 5.7464 4.2 4.2C4.2 2.6536 5.4536 1.4 7 1.4C8.5464 1.4 9.8 2.6536 9.8 4.2ZM0 13.3V11.9C0 10.3536 1.2536 9.1 2.8 9.1H11.2C12.7464 9.1 14 10.3536 14 11.9V13.3C14 14.0732 13.3732 14.7 12.6 14.7H1.4C0.626801 14.7 0 14.0732 0 13.3ZM12.6 11.9V13.3H1.4V11.9C1.4 11.1268 2.0268 10.5 2.8 10.5H11.2C11.9732 10.5 12.6 11.1268 12.6 11.9Z" fill="#A2A9B4"/>
</svg>
