<svg width="18" height="19" viewBox="0 0 18 19" fill="none" xmlns="http://www.w3.org/2000/svg">
<path d="M14.9571 5.1644H11.6221C11.1468 5.1644 10.7614 5.54976 10.7614 6.02513C10.7614 6.5005 11.1468 6.88586 11.6221 6.88586H15.9258C16.8765 6.88586 17.6473 6.11514 17.6473 5.1644V0.860733C17.6473 0.385363 17.2619 0 16.7865 0C16.3112 0 15.9258 0.385363 15.9258 0.860733V3.61281C14.755 2.23328 13.1838 1.2219 11.3791 0.738319C6.55776 -0.553546 1.60206 2.30763 0.310195 7.12894C-0.98167 11.9502 1.87951 16.9059 6.70081 18.1978C11.5221 19.4897 16.4778 16.6285 17.7697 11.8072C17.8927 11.348 17.6202 10.876 17.1611 10.753C16.7019 10.63 16.2299 10.9025 16.1069 11.3616C15.0611 15.2646 11.0493 17.5808 7.14636 16.535C3.2434 15.4892 0.927208 11.4774 1.973 7.57448C3.0188 3.67152 7.03056 1.35533 10.9335 2.40113C12.58 2.84229 13.9841 3.82388 14.9571 5.1644Z" fill="#3D3157"/>
</svg>
