<svg width="15" height="15" viewBox="0 0 15 15" fill="none" xmlns="http://www.w3.org/2000/svg">
<path fill-rule="evenodd" clip-rule="evenodd" d="M0.164251 4.81104C-0.194972 5.47817 0.0546347 6.31019 0.721763 6.66942L5.46387 9.22286L8.01731 13.965C8.18117 14.2693 8.45384 14.5005 8.78082 14.6125C9.49766 14.8579 10.2778 14.4758 10.5232 13.759L14.6124 1.81674C14.711 1.52866 14.711 1.21595 14.6124 0.927868C14.3669 0.211032 13.5868 -0.171099 12.87 0.0743548L0.927761 4.16353C0.600782 4.27549 0.328108 4.50674 0.164251 4.81104ZM5.8462 7.87056L11.8394 1.87738L1.37219 5.46148L5.8462 7.87056ZM12.8092 2.84774L6.81626 8.84069L9.22526 13.3145L12.8092 2.84774Z" fill="white"/>
</svg>
