<svg width="34" height="35" viewBox="0 0 34 35" fill="none" xmlns="http://www.w3.org/2000/svg">
<path opacity="0.314872" fill-rule="evenodd" clip-rule="evenodd" d="M15 32C22.732 32 29 25.732 29 18C29 10.268 22.732 4 15 4C7.26801 4 1 10.268 1 18C1 25.732 7.26801 32 15 32Z" fill="#80969B"/>
<path fill-rule="evenodd" clip-rule="evenodd" d="M14.3283 17.9452L14.1062 4.70419C14.104 4.36796 14.3618 4.09363 14.6982 4.09173C20.2658 3.99477 25.3562 7.2081 27.6554 12.2819C29.9545 17.3561 29.0114 23.3096 25.2544 27.4232C24.0587 28.7352 22.6429 29.7902 21.0618 30.5613C17.7145 32.194 13.9251 32.4223 10.4049 31.2102C10.0804 31.0987 9.91546 30.7605 10.0274 30.4361L14.3283 17.9452Z" fill="#80969B"/>
</svg>
