<?xml version="1.0" encoding="UTF-8"?>
<svg width="20px" height="20px" viewBox="0 0 20 20" version="1.1" xmlns="http://www.w3.org/2000/svg" xmlns:xlink="http://www.w3.org/1999/xlink">
    <defs>
        <path d="M3.86613747,8.39153788 L5.23265808,7.0507253 C5.47431392,6.81361567 5.86611545,6.81361567 6.10777129,7.0507253 C6.34942713,7.28783493 6.34942713,7.67226559 6.10777129,7.90937521 L4.74125068,9.25018779 L6.10777129,10.5910004 C6.34942713,10.82811 6.34942713,11.2125407 6.10777129,11.4496503 C5.86611545,11.6867599 5.47431392,11.6867599 5.23265808,11.4496503 L3.86613747,10.1088377 L2.49961686,11.4496503 C2.25796102,11.6867599 1.86615949,11.6867599 1.62450365,11.4496503 C1.38284781,11.2125407 1.38284781,10.82811 1.62450365,10.5910004 L2.99102426,9.25018779 L1.62450365,7.90937521 C1.38284781,7.67226559 1.38284781,7.28783493 1.62450365,7.0507253 C1.86615949,6.81361567 2.25796102,6.81361567 2.49961686,7.0507253 L3.86613747,8.39153788 Z M7.06474313,13.9534432 L19.3812015,13.9534432 C19.7229545,13.9534432 20,14.2252768 20,14.5606004 C20,14.895924 19.7229545,15.1677576 19.3812015,15.1677576 L5.69085912,15.1677576 C5.28803661,15.5173207 4.88333297,15.863086 4.47864044,16.2039046 C3.94691567,16.6517055 3.45304422,17.0589277 3.00957253,17.4178966 C2.74281997,17.6338199 2.55164557,17.7860647 2.44861029,17.8669387 C2.1817415,18.0764081 1.79233726,18.0339467 1.57885157,17.7720984 C1.36536588,17.5102502 1.40864143,17.1281717 1.67551022,16.9187023 C1.77383039,16.8415292 1.96019748,16.6931129 2.22200298,16.481194 C2.65946141,16.1270925 3.1471978,15.724929 3.67258917,15.2824618 C3.71791601,15.2442891 3.76324271,15.2060538 3.80856648,15.1677576 L0.618798485,15.1677576 C0.277045518,15.1677576 6.39488462e-14,14.895924 6.39488462e-14,14.5606004 C6.39488462e-14,14.2252768 0.277045518,13.9534432 0.618798485,13.9534432 L5.22048409,13.9534432 C6.19606137,13.0990214 7.15656128,12.224415 8.07344878,11.3472568 C8.26134786,11.1674995 8.44612119,10.9888424 8.62763199,10.8113722 C8.2647126,9.98861768 8.10635947,8.88119732 8.14660943,7.61076191 C8.22478412,5.14328369 9.04577897,2.60128473 10.2840743,1.38628518 C13.9524321,-2.21306065 17.2378277,1.81642472 14.1230259,6.40073043 C13.4779883,7.35008434 12.6292026,8.39119758 11.6018998,9.51129668 C11.1723426,9.97965578 10.7141866,10.4589548 10.2301621,10.9475792 C10.3795568,11.0616412 10.5445069,11.1212232 10.7216309,11.1212232 C11.4678573,11.1212232 12.0719185,10.8747984 13.0250796,10.2735794 C14.1094891,9.58957383 14.0423116,9.63007249 14.4285334,9.46681795 C15.8637327,8.86016431 17.1010491,9.40209256 18.4528112,11.3915901 C18.6423816,11.6705963 18.565543,12.0475616 18.2811874,12.2335656 C17.9968317,12.4195697 17.6126387,12.3441767 17.4230683,12.0651705 C16.3720601,10.5183168 15.7320834,10.2380155 14.9181867,10.5820467 C14.6280002,10.7047075 14.6780181,10.6745536 13.6943196,11.2950345 C12.5578199,12.0118967 11.7644789,12.3355375 10.7216309,12.3355375 C10.1720935,12.3355375 9.7120271,12.1554794 9.33979069,11.8288407 C9.20726464,11.9575802 9.07312575,12.0868761 8.93742086,12.2167008 C8.32890332,12.7988509 7.7020541,13.3793609 7.06474247,13.9534437 Z M10.6819552,8.6990134 C11.6722813,7.61923111 12.4852116,6.62209782 13.093283,5.72715002 C15.489117,2.20100738 13.5846016,-0.134850308 11.1591875,2.24493509 C10.1819068,3.20383039 9.45291401,5.46096882 9.38360886,7.64849185 C9.3557636,8.52738999 9.4353999,9.27138367 9.59735921,9.84251553 C9.97715566,9.45421964 10.339205,9.07272423 10.6819552,8.6990134 Z" id="path-1"></path>
    </defs>
    <g id="Icon-/-Signature-Alt" stroke="none" stroke-width="1" fill="none" fill-rule="evenodd">
        <g id="Color-/-Brand-Primary" transform="translate(0.000000, 1.000000)">
            <mask id="mask-2" fill="white">
                <use xlink:href="#path-1"></use>
            </mask>
            <use id="Mask" fill="currentColor" fill-rule="nonzero" xlink:href="#path-1"></use>
            <g id="Color-/-Default-Text" mask="url(#mask-2)" fill="none">
                <g transform="translate(-1.000000, -1.000000)" id="Rectangle">
                    <rect x="0" y="0" width="22" height="20"></rect>
                </g>
            </g>
        </g>
    </g>
</svg>
