<?xml version="1.0" encoding="UTF-8"?>
<svg width="20px" height="20px" viewBox="0 0 20 20" version="1.1" xmlns="http://www.w3.org/2000/svg" xmlns:xlink="http://www.w3.org/1999/xlink">
    <defs>
        <path d="M7.81053786,14.4370294 C6.3782517,14.2316553 5.1890051,13.4598246 4.29544015,12.3102687 C3.40529778,13.6604927 2.37668134,15.1325352 1.20937428,16.7273449 C0.994988949,17.0202446 0.57837202,17.0877444 0.278834323,16.8781101 C-0.0207033745,16.6684758 -0.0897330089,16.2610915 0.124652319,15.9681919 C1.43602615,14.1765539 2.56767408,12.5451373 3.519272,11.075362 C2.92720783,9.90491885 2.56170672,8.50534431 2.45521859,6.99297716 C2.18171843,3.10866989 3.75888308,-0.000307520927 6.56407583,0.471292538 C8.69175716,0.828991537 9.10755471,2.68519416 8.01939978,5.55111807 C7.45430657,7.03943016 6.47228148,8.88984713 5.07218773,11.1073487 C5.68660673,12.0492076 6.49404158,12.7242505 7.4466881,13.0197347 L7.17911478,11.3960778 C7.15145904,11.2282605 7.19133827,11.0548393 7.2899795,10.9139651 L12.4969605,3.47762557 C12.7023702,3.1842701 13.1014291,3.10928575 13.3882836,3.31014338 L16.5046589,5.49225287 C16.7915133,5.69311048 16.8575373,6.09374942 16.6521276,6.38710489 L11.4451466,13.8234444 C11.3465054,13.9643187 11.1971823,14.0611064 11.0300268,14.0925154 L8.35605752,14.594962 C8.15007731,14.6336662 7.95082747,14.5688315 7.81053786,14.4370294 Z M8.77776592,13.2110223 L10.5604121,12.8760579 L15.2414086,6.19090216 L13.163825,4.73616251 L8.48282857,11.4213183 L8.77776592,13.2110223 Z M15.985263,5.12856795 L17.4729718,3.00389953 L15.3953883,1.54915987 L13.9076795,3.67382829 L15.985263,5.12856795 Z M12.4969605,3.47762557 L14.7285237,0.290622933 C14.9339335,-0.00273253328 15.3329924,-0.0777168912 15.6198468,0.123140741 L18.7362222,2.30525023 C19.0230766,2.50610784 19.0891005,2.90674678 18.8836908,3.20010225 L16.6521276,6.38710489 C16.4467178,6.68046035 16.0476589,6.75544469 15.7608045,6.55458708 L12.6444291,4.37247759 C12.3575747,4.17161996 12.2915508,3.77098104 12.4969605,3.47762557 Z M6.76888218,5.09712362 C7.60874456,2.88513928 7.39582491,1.93462379 6.33805456,1.75679481 C4.70676761,1.48254805 3.56304903,3.73709722 3.78599212,6.90338236 C3.85802714,7.92643911 4.06087445,8.8783122 4.37630411,9.71600775 C5.49806279,7.88374139 6.29584935,6.34297206 6.76888218,5.09712362 Z" id="path-1"></path>
    </defs>
    <g id="Icon-/-Signature" stroke="none" stroke-width="1" fill="none" fill-rule="evenodd">
        <g id="Color-/-Brand-Primary" transform="translate(0.000000, 1.000000)">
            <mask id="mask-2" fill="white">
                <use xlink:href="#path-1"></use>
            </mask>
            <use id="Mask" fill="currentColor" fill-rule="nonzero" xlink:href="#path-1"></use>
            <g id="Color-/-Default-Text" mask="url(#mask-2)" fill="currentColor">
                <g transform="translate(-1.000000, -2.000000)" id="Rectangle">
                    <rect x="0" y="0" width="21" height="21"></rect>
                </g>
            </g>
        </g>
    </g>
</svg>
