<?xml version="1.0" encoding="UTF-8"?>
<svg width="20px" height="20px" viewBox="0 0 20 20" version="1.1" xmlns="http://www.w3.org/2000/svg" xmlns:xlink="http://www.w3.org/1999/xlink">
    <defs>
        <path d="M8.1,16.2 L8.1,1.8 L2.7,1.8 C2.20294372,1.8 1.8,2.20294372 1.8,2.7 L1.8,4.5 C1.8,4.99705628 1.39705627,5.4 0.9,5.4 C0.402943725,5.4 0,4.99705628 0,4.5 L0,2.7 C0,1.20883118 1.20883118,0 2.7,0 L15.3,0 C16.7911688,0 18,1.20883118 18,2.7 L18,4.5 C18,4.99705628 17.5970562,5.4 17.1,5.4 C16.6029438,5.4 16.2,4.99705628 16.2,4.5 L16.2,2.7 C16.2,2.20294372 15.7970562,1.8 15.3,1.8 L9.9,1.8 L9.9,16.2 L12.6,16.2 C13.0970562,16.2 13.5,16.6029438 13.5,17.1 C13.5,17.5970562 13.0970562,18 12.6,18 L5.4,18 C4.90294373,18 4.5,17.5970562 4.5,17.1 C4.5,16.6029438 4.90294373,16.2 5.4,16.2 L8.1,16.2 Z" id="path-1"></path>
    </defs>
    <g id="Icon-/-Text" stroke="none" stroke-width="1" fill="none" fill-rule="evenodd">
        <g id="Color-/-Brand-Primary" transform="translate(1.000000, 1.000000)">
            <mask id="mask-2" fill="white">
                <use xlink:href="#path-1"></use>
            </mask>
            <use id="Mask" fill="none" fill-rule="nonzero" xlink:href="#path-1"></use>
            <g id="Color-/-Default-Text" mask="url(#mask-2)" fill="currentColor">
                <g transform="translate(-1.000000, -1.000000)" id="Rectangle">
                    <rect x="0" y="0" width="20" height="20"></rect>
                </g>
            </g>
        </g>
    </g>
</svg>
