<?xml version="1.0" encoding="UTF-8"?>
<svg width="20px" height="20px" viewBox="0 0 20 20" version="1.1" xmlns="http://www.w3.org/2000/svg" xmlns:xlink="http://www.w3.org/1999/xlink">
    <defs>
        <path d="M4.44444444,3.36666667 L4.44444444,1.58888889 C4.44444444,1.09796911 4.84241356,0.7 5.33333333,0.7 L10.6666667,0.7 C11.1575864,0.7 11.5555556,1.09796911 11.5555556,1.58888889 L11.5555556,3.36666667 L15.1111111,3.36666667 C15.6020308,3.36666667 16,3.76463578 16,4.25555556 C16,4.74647533 15.6020308,5.14444444 15.1111111,5.14444444 L15.1111111,15.8111111 C15.1111111,17.7747902 13.5192347,19.3666667 11.5555556,19.3666667 L4.44444444,19.3666667 C2.48076533,19.3666667 0.888888889,17.7747902 0.888888889,15.8111111 L0.888888889,5.14444444 C0.397969111,5.14444444 0,4.74647533 0,4.25555556 C0,3.76463578 0.397969111,3.36666667 0.888888889,3.36666667 L4.44444444,3.36666667 Z M2.66666667,5.14444444 L2.66666667,15.8111111 C2.66666667,16.7929507 3.46260489,17.5888889 4.44444444,17.5888889 L11.5555556,17.5888889 C12.5373951,17.5888889 13.3333333,16.7929507 13.3333333,15.8111111 L13.3333333,5.14444444 L2.66666667,5.14444444 Z M5.33333333,7.81111111 C5.33333333,7.32019133 5.73130244,6.92222222 6.22222222,6.92222222 C6.71314196,6.92222222 7.11111111,7.32019133 7.11111111,7.81111111 L7.11111111,14.9222222 C7.11111111,15.413142 6.71314196,15.8111111 6.22222222,15.8111111 C5.73130244,15.8111111 5.33333333,15.413142 5.33333333,14.9222222 L5.33333333,7.81111111 Z M8.88888889,7.81111111 C8.88888889,7.32019133 9.28685804,6.92222222 9.77777778,6.92222222 C10.2686975,6.92222222 10.6666667,7.32019133 10.6666667,7.81111111 L10.6666667,14.9222222 C10.6666667,15.413142 10.2686975,15.8111111 9.77777778,15.8111111 C9.28685804,15.8111111 8.88888889,15.413142 8.88888889,14.9222222 L8.88888889,7.81111111 Z M6.22222222,3.36666667 L9.77777778,3.36666667 L9.77777778,2.47777778 L6.22222222,2.47777778 L6.22222222,3.36666667 Z" id="path-1"></path>
    </defs>
    <g id="Icon-/-Trash" stroke="none" stroke-width="1" fill="none" fill-rule="evenodd">
        <g id="Color-/-Brand-Primary" transform="translate(2.000000, 0.000000)">
            <mask id="mask-2" fill="white">
                <use xlink:href="#path-1"></use>
            </mask>
            <use id="Mask" fill="none" fill-rule="nonzero" xlink:href="#path-1"></use>
            <g id="Color-/-Default-Text" mask="url(#mask-2)" fill="currentColor">
                <g transform="translate(-2.000000, 0.000000)" id="Rectangle">
                    <rect x="0" y="0" width="20" height="20"></rect>
                </g>
            </g>
        </g>
    </g>
</svg>
