<svg width="37" height="34" viewBox="0 0 37 34" fill="none" xmlns="http://www.w3.org/2000/svg">
<path fill-rule="evenodd" clip-rule="evenodd" d="M27.75 9.25C27.673 9.25 27.5961 9.25094 27.5193 9.25283C26.4463 3.95442 21.7607 0 16.1875 0C9.80171 0 4.625 5.17671 4.625 11.5625C4.625 12.0254 4.65228 12.485 4.70629 12.9395C1.91221 14.12 0 16.8842 0 20.0417C0 24.2989 3.45114 27.75 7.70833 27.75C8.55977 27.75 9.25 27.0598 9.25 26.2083C9.25 25.3569 8.55977 24.6667 7.70833 24.6667C5.15402 24.6667 3.08333 22.596 3.08333 20.0417C3.08333 17.8351 4.6412 15.9473 6.77441 15.5107C7.63406 15.3347 8.17371 14.4778 7.96093 13.6265C7.79376 12.9577 7.70833 12.2664 7.70833 11.5625C7.70833 6.87959 11.5046 3.08333 16.1875 3.08333C20.6771 3.08333 24.382 6.58379 24.651 11.0425C24.7076 11.9793 25.581 12.6487 26.5003 12.4597C26.9078 12.376 27.3257 12.3333 27.75 12.3333C31.1558 12.3333 33.9167 15.0942 33.9167 18.5C33.9167 21.9058 31.1558 24.6667 27.75 24.6667C26.8986 24.6667 26.2083 25.3569 26.2083 26.2083C26.2083 27.0598 26.8986 27.75 27.75 27.75C32.8586 27.75 37 23.6086 37 18.5C37 13.3914 32.8586 9.25 27.75 9.25ZM19.2708 32.2081V20.5134L20.9995 22.2419C21.6016 22.844 22.5777 22.8439 23.1797 22.2419C23.7818 21.6398 23.7817 20.6636 23.1797 20.0616L19.9094 16.7915C18.7053 15.5874 16.7531 15.5875 15.549 16.7915L12.2786 20.0618C11.6766 20.6639 11.6766 21.64 12.2786 22.2421C12.8807 22.8441 13.8568 22.8441 14.4589 22.2421L16.1875 20.5134V32.2081C16.1875 33.0595 16.8777 33.7498 17.7292 33.7498C18.5806 33.7498 19.2708 33.0595 19.2708 32.2081Z" fill="#7A49DF"/>
</svg>
