<?xml version="1.0" encoding="UTF-8"?>
<svg width="20px" height="20px" viewBox="0 0 20 20" version="1.1" xmlns="http://www.w3.org/2000/svg" xmlns:xlink="http://www.w3.org/1999/xlink">
    <defs>
        <path d="M13.7330915,12.5216614 L17.6711236,16.4596936 C18.0056508,16.7942207 18.0056508,17.3365965 17.6711236,17.6711236 C17.3365965,18.0056508 16.7942207,18.0056508 16.4596936,17.6711236 L12.5216614,13.7330915 C11.2027634,14.7881167 9.52980224,15.4189869 7.70949344,15.4189869 C3.45165779,15.4189869 0,11.9673292 0,7.70949344 C0,3.45165779 3.45165779,0 7.70949344,0 C11.9673292,0 15.4189869,3.45165779 15.4189869,7.70949344 C15.4189869,9.52980224 14.7881167,11.2027634 13.7330915,12.5216614 L13.7330915,12.5216614 Z M7.70949344,13.7057661 C11.0211434,13.7057661 13.7057661,11.0211434 13.7057661,7.70949344 C13.7057661,4.3978435 11.0211434,1.71322077 7.70949344,1.71322077 C4.3978435,1.71322077 1.71322077,4.3978435 1.71322077,7.70949344 C1.71322077,11.0211434 4.3978435,13.7057661 7.70949344,13.7057661 Z M4.71135712,8.56610382 C4.23826426,8.56610382 3.85474673,8.18258633 3.85474673,7.70949344 C3.85474673,7.23640063 4.23826426,6.85288308 4.71135712,6.85288308 L10.7076298,6.85288308 C11.1807227,6.85288308 11.5642402,7.23640063 11.5642402,7.70949344 C11.5642402,8.18258633 11.1807227,8.56610382 10.7076298,8.56610382 L4.71135712,8.56610382 Z" id="path-2"></path>
    </defs>
    <g id="Icon-/-Zoom-Out" stroke="none" stroke-width="1" fill="none" fill-rule="evenodd">
        <g id="Color-/-Brand-Primary" transform="translate(1.000000, 1.000000)">
            <mask id="mask-2" fill="white">
                <use xlink:href="#path-2"></use>
            </mask>
            <use id="Mask" fill="none" fill-rule="nonzero" xlink:href="#path-2"></use>
            <g id="Color-/-Default-Text" mask="url(#mask-2)" fill="currentColor">
                <g transform="translate(-1.000000, -1.000000)" id="Rectangle">
                    <rect x="0" y="0" width="20" height="20"></rect>
                </g>
            </g>
        </g>
    </g>
</svg>
